{"glyphs":{"0":{"ha":1014,"x_min":57,"x_max":957,"o":"m 508 219 q 582 239 549 219 q 638 294 615 258 q 674 377 661 329 q 686 483 686 425 l 686 486 q 673 593 686 544 q 636 677 660 642 q 579 733 613 713 q 506 753 546 753 q 433 733 465 753 q 376 679 400 714 q 340 596 353 644 q 328 489 328 547 l 328 486 q 341 378 328 428 q 378 294 354 329 q 435 239 401 258 q 508 219 468 219 m 506 -19 q 318 20 401 -19 q 177 128 235 60 q 88 289 119 197 q 57 483 57 381 l 57 486 q 89 681 57 589 q 179 842 121 774 q 321 951 238 911 q 508 992 404 992 q 695 952 613 992 q 836 844 778 913 q 926 683 894 775 q 957 489 957 592 l 957 486 q 926 291 957 383 q 835 130 894 199 q 693 21 776 61 q 506 -19 610 -19 z "},"1":{"ha":586,"x_min":11,"x_max":492,"o":"m 226 728 l 63 690 l 11 899 l 296 979 l 492 979 l 492 0 l 226 0 l 226 728 z "},"2":{"ha":867,"x_min":46,"x_max":815,"o":"m 46 203 l 410 481 q 506 572 478 533 q 535 656 535 611 q 505 728 535 701 q 426 754 475 754 q 334 724 378 754 q 233 629 290 694 l 51 781 q 131 869 90 831 q 217 935 171 908 q 320 975 264 961 q 447 989 376 989 q 592 966 526 989 q 706 903 658 943 q 779 805 753 863 q 806 679 806 747 l 806 676 q 791 572 806 618 q 747 487 776 526 q 676 411 718 447 q 581 336 635 375 l 414 219 l 815 219 l 815 0 l 46 0 l 46 203 z "},"3":{"ha":863,"x_min":25,"x_max":814,"o":"m 439 -19 q 197 27 297 -19 q 25 153 96 74 l 194 322 q 303 240 247 269 q 426 211 360 211 q 518 238 485 211 q 551 310 551 265 l 551 313 q 510 386 551 360 q 393 413 469 413 l 279 413 l 240 553 l 464 754 l 92 754 l 92 972 l 794 972 l 794 779 l 563 581 q 660 549 614 569 q 740 494 706 528 q 794 415 775 461 q 814 307 814 369 l 814 304 q 785 171 814 231 q 707 69 757 111 q 588 3 657 26 q 439 -19 519 -19 z "},"4":{"ha":957,"x_min":18,"x_max":918,"o":"m 533 389 l 533 668 l 301 389 l 533 389 m 533 189 l 63 189 l 18 379 l 522 979 l 794 979 l 794 390 l 918 390 l 918 189 l 794 189 l 794 0 l 533 0 l 533 189 z "},"5":{"ha":875,"x_min":26,"x_max":822,"o":"m 421 -19 q 197 22 292 -19 q 26 135 103 64 l 181 315 q 297 238 240 265 q 417 210 354 210 q 522 240 483 210 q 560 324 560 271 l 560 326 q 520 409 560 379 q 417 439 481 439 q 334 425 372 439 q 261 390 296 411 l 101 479 l 129 972 l 779 972 l 779 750 l 342 750 l 333 603 q 403 628 367 618 q 489 638 440 638 q 615 619 554 638 q 721 563 675 600 q 794 467 767 525 q 822 329 822 408 l 822 326 q 792 181 822 244 q 710 72 763 117 q 583 4 657 28 q 421 -19 510 -19 z "},"6":{"ha":919,"x_min":57,"x_max":860,"o":"m 463 190 q 562 226 526 190 q 597 315 597 263 l 597 318 q 560 407 597 371 q 460 443 524 443 q 360 408 396 443 q 325 319 325 372 l 325 317 q 362 227 325 264 q 463 190 399 190 m 474 -19 q 299 10 369 -19 q 176 92 229 39 q 90 233 122 146 q 57 456 57 319 l 57 458 q 85 669 57 572 q 169 838 113 767 q 310 951 225 910 q 508 992 394 992 q 686 965 611 992 q 832 885 761 938 l 706 694 q 616 748 661 728 q 513 768 571 768 q 383 710 426 768 q 329 561 339 653 q 417 613 368 590 q 539 636 467 636 q 661 616 603 636 q 763 558 719 596 q 833 463 807 519 q 860 333 860 406 l 860 331 q 829 184 860 249 q 747 74 799 119 q 624 5 694 29 q 474 -19 553 -19 z "},"7":{"ha":853,"x_min":64,"x_max":813,"o":"m 514 746 l 64 746 l 64 972 l 813 972 l 813 769 l 383 0 l 86 0 l 514 746 z "},"8":{"ha":875,"x_min":38,"x_max":838,"o":"m 438 185 q 542 217 506 185 q 578 294 578 250 l 578 297 q 539 374 578 344 q 438 403 500 403 q 336 374 375 403 q 297 297 297 344 l 297 294 q 333 217 297 250 q 438 185 369 185 m 438 578 q 524 608 492 578 q 557 683 557 638 l 557 686 q 525 758 557 726 q 438 789 493 789 q 350 758 382 789 q 318 688 318 728 l 318 685 q 351 608 318 639 q 438 578 383 578 m 438 -17 q 276 4 350 -17 q 150 63 203 25 q 67 152 97 100 q 38 268 38 204 l 38 271 q 81 415 38 360 q 204 504 125 471 q 109 586 147 536 q 71 715 71 636 l 71 718 q 97 826 71 776 q 172 912 124 875 q 288 969 221 949 q 438 989 356 989 q 587 969 519 989 q 703 912 654 949 q 778 826 751 875 q 804 718 804 776 l 804 715 q 766 586 804 636 q 671 504 728 536 q 739 466 708 488 q 791 417 769 444 q 825 353 813 389 q 838 272 838 318 l 838 269 q 808 151 838 204 q 725 61 778 99 q 599 3 672 24 q 438 -17 525 -17 z "},"9":{"ha":919,"x_min":60,"x_max":863,"o":"m 460 521 q 560 558 524 521 q 596 647 596 594 l 596 650 q 558 744 596 707 q 457 782 521 782 q 357 745 393 782 q 321 651 321 708 l 321 649 q 358 557 321 593 q 460 521 396 521 m 413 -19 q 222 12 304 -19 q 74 96 140 43 l 200 282 q 300 223 250 242 q 408 204 350 204 q 537 258 492 204 q 592 407 582 313 q 503 349 554 371 q 386 328 451 328 q 256 349 315 328 q 152 410 196 371 q 84 507 108 450 q 60 635 60 564 l 60 638 q 89 783 60 718 q 170 895 118 849 q 293 967 222 942 q 447 992 364 992 q 622 963 553 992 q 746 878 690 933 q 831 739 799 825 q 863 518 863 653 l 863 515 q 833 297 863 396 q 747 128 804 199 q 606 19 690 58 q 413 -19 522 -19 z "}," ":{"ha":385,"x_min":0,"x_max":0,"o":""},"!":{"ha":450,"x_min":75,"x_max":375,"o":"m 88 236 l 363 236 l 363 0 l 88 0 l 88 236 m 75 854 l 75 972 l 375 972 l 375 854 l 294 317 l 156 317 l 75 854 z "},"\"":{"ha":746,"x_min":47,"x_max":718,"o":"m 78 972 l 361 972 l 361 965 l 185 474 l 47 474 l 78 972 m 435 972 l 718 972 l 718 965 l 542 474 l 403 474 l 435 972 z "},"#":{"ha":981,"x_min":40,"x_max":939,"o":"m 568 406 l 596 572 l 411 572 l 382 406 l 568 406 m 149 188 l 40 188 l 40 411 l 188 411 l 214 567 l 86 567 l 86 790 l 253 790 l 283 972 l 485 972 l 453 790 l 629 790 l 660 972 l 861 972 l 831 790 l 939 790 l 939 567 l 792 567 l 765 411 l 893 411 l 893 188 l 728 188 l 694 0 l 493 0 l 526 188 l 350 188 l 318 0 l 117 0 l 149 188 z "},"$":{"ha":925,"x_min":35,"x_max":882,"o":"m 549 203 q 642 274 642 213 l 642 276 q 622 322 642 304 q 549 356 603 340 l 549 203 m 419 771 q 347 748 368 767 q 325 701 325 729 l 325 699 q 344 653 325 671 q 419 621 363 636 l 419 771 m 410 3 q 210 49 307 14 q 35 140 114 83 l 160 325 q 290 250 226 278 q 418 211 353 222 l 418 378 q 272 422 335 397 q 166 483 208 447 q 102 565 124 518 q 81 678 81 613 l 81 681 q 103 793 81 742 q 167 883 125 844 q 272 944 210 921 q 413 974 333 968 l 413 1053 l 557 1053 l 557 969 q 715 932 643 960 q 850 861 788 904 l 736 675 q 645 726 693 706 q 550 758 597 747 l 550 597 q 695 552 633 578 q 799 491 757 526 q 861 407 840 456 q 882 294 882 358 l 882 292 q 858 177 882 228 q 792 89 835 126 q 688 29 749 51 q 554 0 628 7 l 554 -136 l 410 -136 l 410 3 z "},"%":{"ha":1249,"x_min":49,"x_max":1200,"o":"m 950 139 q 1008 169 986 139 q 1031 246 1031 200 l 1031 249 q 1008 326 1031 296 q 949 357 985 357 q 890 327 911 357 q 868 250 868 297 l 868 247 q 892 170 868 201 q 950 139 915 139 m 300 615 q 358 646 336 615 q 381 722 381 676 l 381 725 q 358 802 381 771 q 299 833 335 833 q 240 803 263 833 q 218 726 218 772 l 218 724 q 242 646 218 676 q 300 615 265 615 m 949 -14 q 846 7 892 -14 q 767 63 800 28 q 717 146 735 99 q 699 246 699 193 l 699 249 q 717 350 699 303 q 767 433 735 397 q 847 489 800 468 q 950 510 893 510 q 1053 490 1007 510 q 1131 434 1099 469 q 1182 351 1164 399 q 1200 250 1200 304 l 1200 247 q 1182 147 1200 194 q 1131 63 1164 99 q 1051 7 1097 28 q 949 -14 1004 -14 m 906 972 l 1093 972 l 343 0 l 156 0 l 906 972 m 299 463 q 196 483 242 463 q 117 538 150 503 q 67 621 85 574 q 49 722 49 668 l 49 725 q 67 826 49 779 q 117 909 85 874 q 197 965 150 944 q 300 986 243 986 q 403 965 357 986 q 481 909 449 944 q 532 826 514 874 q 550 726 550 779 l 550 724 q 532 622 550 669 q 481 540 514 575 q 401 483 447 504 q 299 463 354 463 z "},"&":{"ha":969,"x_min":29,"x_max":947,"o":"m 413 182 q 471 193 442 182 q 528 224 500 204 l 368 386 q 315 337 332 364 q 299 281 299 310 l 299 278 q 331 208 299 235 q 413 182 363 182 m 440 607 q 543 726 543 653 l 543 729 q 522 786 543 765 q 468 807 501 807 q 412 783 433 807 q 390 721 390 760 l 390 718 q 403 665 390 690 q 440 607 415 639 m 665 82 q 532 9 603 35 q 376 -17 461 -17 q 238 2 301 -17 q 128 57 175 21 q 56 145 82 93 q 29 264 29 197 l 29 267 q 226 539 29 450 q 178 633 193 588 q 163 725 163 678 l 163 728 q 183 828 163 781 q 244 913 204 876 q 340 970 283 949 q 468 992 397 992 q 588 972 535 992 q 679 919 642 953 q 737 840 717 886 q 757 742 757 794 l 757 739 q 705 588 757 649 q 567 486 653 526 l 675 381 q 722 454 699 415 q 767 535 744 493 l 944 446 q 883 339 914 390 q 817 240 851 288 l 947 111 l 765 -19 l 665 82 z "},"'":{"ha":394,"x_min":47,"x_max":367,"o":"m 78 972 l 367 972 l 367 965 l 190 474 l 47 474 l 78 972 z "},"(":{"ha":618,"x_min":61,"x_max":576,"o":"m 467 -196 q 294 -85 369 -144 q 167 47 218 -25 q 88 206 115 119 q 61 399 61 293 q 88 591 61 504 q 167 750 115 678 q 294 882 218 822 q 467 993 369 942 l 576 829 q 461 735 510 783 q 381 635 413 688 q 335 525 350 583 q 319 399 319 467 q 335 272 319 331 q 381 162 350 214 q 461 62 413 110 q 576 -32 510 14 l 467 -196 z "},")":{"ha":618,"x_min":42,"x_max":557,"o":"m 42 -32 q 157 62 108 14 q 237 162 206 110 q 283 272 268 214 q 299 399 299 331 q 283 525 299 467 q 237 635 268 583 q 157 735 206 688 q 42 829 108 783 l 151 993 q 324 882 249 942 q 451 750 400 822 q 530 591 503 678 q 557 399 557 504 q 530 206 557 293 q 451 47 503 119 q 324 -85 400 -25 q 151 -196 249 -144 l 42 -32 z "},"*":{"ha":590,"x_min":39,"x_max":551,"o":"m 257 654 l 114 532 l 39 660 l 215 722 l 39 785 l 114 914 l 257 792 l 222 975 l 368 975 l 333 792 l 476 914 l 551 785 l 375 722 l 551 660 l 476 532 l 333 654 l 368 471 l 222 471 l 257 654 z "},"+":{"ha":889,"x_min":89,"x_max":800,"o":"m 324 372 l 89 372 l 89 606 l 324 606 l 324 844 l 565 844 l 565 606 l 800 606 l 800 372 l 565 372 l 565 133 l 324 133 l 324 372 z "},",":{"ha":394,"x_min":28,"x_max":335,"o":"m 28 -128 q 167 3 171 -111 l 60 3 l 60 274 l 335 274 l 335 53 q 315 -78 335 -25 q 257 -163 294 -131 q 167 -212 219 -196 q 49 -229 114 -228 l 28 -128 z "},"-":{"ha":567,"x_min":56,"x_max":511,"o":"m 56 550 l 511 550 l 511 318 l 56 318 l 56 550 z "},".":{"ha":394,"x_min":60,"x_max":335,"o":"m 60 271 l 335 271 l 335 0 l 60 0 l 60 271 z "},"/":{"ha":743,"x_min":-53,"x_max":776,"o":"m 563 1108 l 776 1108 l 161 -178 l -53 -178 l 563 1108 z "},":":{"ha":408,"x_min":67,"x_max":342,"o":"m 67 271 l 342 271 l 342 0 l 67 0 l 67 271 m 67 751 l 342 751 l 342 481 l 67 481 l 67 751 z "},";":{"ha":408,"x_min":35,"x_max":342,"o":"m 35 -131 q 174 0 178 -114 l 67 0 l 67 271 l 342 271 l 342 50 q 322 -81 342 -28 q 264 -166 301 -133 q 174 -215 226 -199 q 56 -232 121 -231 l 35 -131 m 67 751 l 342 751 l 342 481 l 67 481 l 67 751 z "},"<":{"ha":894,"x_min":90,"x_max":781,"o":"m 90 365 l 90 611 l 781 886 l 781 640 l 326 489 l 781 338 l 781 90 l 90 365 z "},"=":{"ha":888,"x_min":103,"x_max":785,"o":"m 103 418 l 785 418 l 785 186 l 103 186 l 103 418 m 103 792 l 785 792 l 785 560 l 103 560 l 103 792 z "},">":{"ha":894,"x_min":114,"x_max":804,"o":"m 114 336 l 568 488 l 114 639 l 114 886 l 804 611 l 804 365 l 114 90 l 114 336 z "},"?":{"ha":750,"x_min":14,"x_max":721,"o":"m 208 236 l 482 236 l 482 0 l 208 0 l 208 236 m 231 549 l 242 561 q 411 599 363 571 q 460 672 460 628 l 460 674 q 433 730 460 710 q 356 750 406 750 q 254 726 307 750 q 153 658 201 703 l 14 842 q 165 947 78 906 q 374 988 253 988 q 514 967 450 988 q 624 910 578 947 q 695 818 669 872 q 721 696 721 764 l 721 693 q 700 580 721 628 q 643 498 679 532 q 558 442 607 464 q 450 406 508 419 l 433 317 l 265 317 l 231 549 z "},"@":{"ha":1340,"x_min":63,"x_max":1276,"o":"m 632 269 q 684 282 660 269 q 726 316 708 294 q 755 367 744 338 q 765 429 765 396 q 737 506 765 478 q 664 535 708 535 q 612 522 636 535 q 569 489 588 510 q 541 440 551 468 q 531 378 531 411 q 559 297 531 325 q 632 269 588 269 m 682 -225 q 434 -178 547 -225 q 238 -48 321 -131 q 109 145 156 35 q 63 382 63 256 q 110 618 63 507 q 239 813 157 729 q 433 944 321 896 q 678 992 546 992 q 917 947 807 992 q 1106 828 1026 903 q 1231 656 1186 754 q 1276 451 1276 558 q 1251 287 1276 357 q 1185 171 1226 217 q 1091 102 1144 125 q 981 79 1038 79 q 842 110 893 79 q 767 185 792 142 q 677 110 726 139 q 563 82 628 82 q 462 101 508 82 q 381 158 415 121 q 328 246 347 194 q 308 361 308 297 q 333 501 308 436 q 400 616 358 567 q 497 694 442 665 q 615 722 553 722 q 728 692 683 722 q 801 619 774 663 l 818 704 l 1033 671 l 969 313 q 965 282 967 297 q 964 251 964 267 q 988 193 964 217 q 1054 169 1011 169 q 1170 241 1122 169 q 1218 451 1218 313 q 1178 635 1218 547 q 1067 790 1139 724 q 895 897 994 857 q 678 936 796 936 q 454 892 557 936 q 278 774 351 849 q 163 598 204 699 q 121 382 121 497 q 162 165 121 265 q 277 -10 203 64 q 455 -127 351 -85 q 682 -169 558 -169 q 865 -146 786 -169 q 1022 -76 943 -122 l 1050 -121 q 880 -197 969 -169 q 682 -225 790 -225 z "},"A":{"ha":1104,"x_min":8,"x_max":1096,"o":"m 658 383 l 550 660 l 440 383 l 658 383 m 422 979 l 682 979 l 1096 0 l 807 0 l 736 174 l 361 174 l 292 0 l 8 0 l 422 979 z "},"B":{"ha":993,"x_min":86,"x_max":956,"o":"m 557 217 q 653 240 619 217 q 686 306 686 263 l 686 308 q 654 372 686 349 q 554 396 622 396 l 349 396 l 349 217 l 557 217 m 518 585 q 613 606 581 585 q 646 669 646 626 l 646 672 q 615 734 646 713 q 524 756 585 756 l 349 756 l 349 585 l 518 585 m 86 972 l 585 972 q 742 950 676 972 q 850 885 807 928 q 896 817 879 856 q 913 728 913 778 l 913 725 q 870 588 913 640 q 763 508 828 536 q 903 424 851 479 q 956 271 956 369 l 956 268 q 859 71 956 142 q 588 0 763 0 l 86 0 l 86 972 z "},"C":{"ha":1014,"x_min":53,"x_max":985,"o":"m 554 -19 q 358 18 450 -19 q 199 123 267 56 q 92 283 132 190 q 53 483 53 375 l 53 486 q 92 684 53 592 q 199 845 131 776 q 360 953 267 914 q 565 992 454 992 q 701 977 640 992 q 813 935 763 963 q 905 871 864 908 q 978 789 946 833 l 775 632 q 683 715 733 685 q 563 746 633 746 q 469 726 511 746 q 396 671 426 706 q 348 589 365 636 q 331 489 331 542 l 331 486 q 348 384 331 432 q 396 301 365 336 q 469 247 426 267 q 563 226 511 226 q 631 235 600 226 q 688 259 663 243 q 737 297 714 275 q 782 344 760 318 l 985 200 q 909 113 950 153 q 816 43 868 72 q 699 -3 764 14 q 554 -19 635 -19 z "},"D":{"ha":1063,"x_min":86,"x_max":1010,"o":"m 465 239 q 660 303 586 239 q 733 485 733 367 l 733 488 q 660 669 733 604 q 465 733 586 733 l 356 733 l 356 239 l 465 239 m 86 972 l 461 972 q 694 937 592 972 q 866 838 796 901 q 973 685 936 774 q 1010 492 1010 597 l 1010 489 q 972 294 1010 383 q 864 139 935 204 q 690 37 793 74 q 456 0 586 0 l 86 0 l 86 972 z "},"E":{"ha":926,"x_min":86,"x_max":875,"o":"m 86 972 l 868 972 l 868 743 l 353 743 l 353 596 l 819 596 l 819 383 l 353 383 l 353 229 l 875 229 l 875 0 l 86 0 l 86 972 z "},"F":{"ha":900,"x_min":86,"x_max":864,"o":"m 86 972 l 864 972 l 864 736 l 356 736 l 356 571 l 815 571 l 815 347 l 356 347 l 356 0 l 86 0 l 86 972 z "},"G":{"ha":1068,"x_min":53,"x_max":1004,"o":"m 582 -19 q 372 17 468 -19 q 204 121 275 54 q 93 280 133 188 q 53 483 53 372 l 53 486 q 92 684 53 592 q 201 845 132 776 q 367 953 271 914 q 576 992 464 992 q 799 954 706 992 q 971 850 893 917 l 813 660 q 705 728 760 704 q 578 751 650 751 q 480 731 525 751 q 401 674 435 710 q 349 589 368 638 q 329 485 329 540 l 329 482 q 349 374 329 424 q 403 288 368 324 q 487 233 439 253 q 593 213 535 213 q 749 253 688 213 l 749 371 l 557 371 l 557 568 l 1004 568 l 1004 131 q 821 24 926 67 q 582 -19 715 -19 z "},"H":{"ha":1057,"x_min":86,"x_max":971,"o":"m 86 972 l 356 972 l 356 608 l 701 608 l 701 972 l 971 972 l 971 0 l 701 0 l 701 369 l 356 369 l 356 0 l 86 0 l 86 972 z "},"I":{"ha":454,"x_min":92,"x_max":363,"o":"m 92 972 l 363 972 l 363 0 l 92 0 l 92 972 z "},"J":{"ha":783,"x_min":6,"x_max":710,"o":"m 347 -17 q 232 -4 283 -17 q 139 31 181 8 q 64 83 97 53 q 6 147 31 113 l 179 311 q 251 244 215 268 q 331 221 286 221 q 412 255 382 221 q 442 357 442 289 l 442 972 l 710 972 l 710 356 q 686 197 710 264 q 614 82 663 131 q 498 8 565 33 q 347 -17 431 -17 z "},"K":{"ha":1014,"x_min":86,"x_max":1022,"o":"m 86 972 l 356 972 l 356 578 l 690 972 l 1010 972 l 642 554 l 1022 0 l 699 0 l 454 361 l 356 251 l 356 0 l 86 0 l 86 972 z "},"L":{"ha":856,"x_min":86,"x_max":826,"o":"m 86 972 l 356 972 l 356 236 l 826 236 l 826 0 l 86 0 l 86 972 z "},"M":{"ha":1206,"x_min":86,"x_max":1119,"o":"m 86 972 l 371 972 l 603 596 l 835 972 l 1119 972 l 1119 0 l 851 0 l 851 558 l 603 178 l 597 178 l 350 556 l 350 0 l 86 0 l 86 972 z "},"N":{"ha":1090,"x_min":86,"x_max":1004,"o":"m 86 972 l 338 972 l 738 458 l 738 972 l 1004 972 l 1004 0 l 768 0 l 353 533 l 353 0 l 86 0 l 86 972 z "},"O":{"ha":1154,"x_min":53,"x_max":1100,"o":"m 578 224 q 679 244 633 224 q 757 301 725 265 q 807 383 789 336 q 825 483 825 431 l 825 486 q 807 586 825 539 q 756 669 789 633 q 676 727 722 706 q 575 749 631 749 q 474 728 519 749 q 397 672 429 707 q 347 589 364 636 q 329 489 329 542 l 329 486 q 347 386 329 433 q 398 303 365 339 q 476 245 431 267 q 578 224 522 224 m 575 -19 q 367 20 463 -19 q 201 128 271 60 q 92 288 132 196 q 53 483 53 379 l 53 486 q 92 683 53 590 q 203 844 132 775 q 369 952 274 913 q 578 992 465 992 q 786 952 690 992 q 951 844 882 913 q 1060 685 1021 776 q 1100 489 1100 593 l 1100 486 q 1060 290 1100 382 q 950 128 1021 197 q 783 20 879 60 q 575 -19 688 -19 z "},"P":{"ha":935,"x_min":86,"x_max":907,"o":"m 483 489 q 597 523 556 489 q 638 615 638 557 l 638 618 q 597 713 638 681 q 482 746 556 746 l 356 746 l 356 489 l 483 489 m 86 972 l 503 972 q 669 949 594 972 q 797 883 744 926 q 878 775 850 839 q 907 631 907 711 l 907 628 q 876 476 907 542 q 789 367 844 411 q 656 300 733 322 q 489 278 579 278 l 356 278 l 356 0 l 86 0 l 86 972 z "},"Q":{"ha":1154,"x_min":53,"x_max":1114,"o":"m 578 219 q 676 238 629 219 l 542 353 l 678 506 l 810 386 q 826 481 826 429 l 826 483 q 808 584 826 536 q 757 669 790 632 q 677 727 724 706 q 575 749 631 749 q 474 727 519 749 q 397 669 429 706 q 347 586 364 633 q 329 486 329 539 l 329 483 q 347 383 329 431 q 398 299 365 335 q 476 241 431 263 q 578 219 522 219 m 871 67 q 733 3 808 26 q 575 -19 658 -19 q 367 20 463 -19 q 201 128 271 60 q 92 288 132 196 q 53 483 53 379 l 53 486 q 92 683 53 590 q 203 844 132 775 q 369 952 274 913 q 578 992 465 992 q 786 952 690 992 q 951 844 882 913 q 1060 685 1021 776 q 1100 489 1100 593 l 1100 486 q 1078 338 1100 408 q 1014 207 1056 267 l 1114 122 l 978 -29 l 871 67 z "},"R":{"ha":999,"x_min":86,"x_max":981,"o":"m 533 506 q 640 537 603 506 q 678 621 678 568 l 678 624 q 639 710 678 682 q 532 739 600 739 l 356 739 l 356 506 l 533 506 m 86 972 l 546 972 q 736 944 658 972 q 863 867 814 917 q 949 640 949 783 l 949 638 q 894 451 949 525 q 749 339 840 378 l 981 0 l 669 0 l 474 294 l 471 294 l 356 294 l 356 0 l 86 0 l 86 972 z "},"S":{"ha":906,"x_min":13,"x_max":861,"o":"m 468 -17 q 220 24 338 -17 q 13 144 103 64 l 163 324 q 478 207 308 207 q 560 224 532 207 q 589 274 589 242 l 589 276 q 582 303 589 292 q 556 326 575 315 q 506 348 538 338 q 425 369 475 358 q 281 409 347 388 q 165 465 214 431 q 87 549 115 499 q 58 675 58 600 l 58 678 q 84 803 58 746 q 159 901 110 860 q 278 966 208 943 q 435 989 347 989 q 658 956 560 989 q 835 860 756 924 l 700 669 q 563 741 633 717 q 428 765 493 765 q 355 747 379 765 q 331 703 331 729 l 331 700 q 338 671 331 683 q 365 648 346 658 q 416 627 383 638 q 499 606 449 617 q 649 563 582 588 q 764 504 717 539 q 836 420 811 469 q 861 303 861 371 l 861 300 q 833 167 861 225 q 753 67 804 108 q 629 5 701 26 q 468 -17 557 -17 z "},"T":{"ha":917,"x_min":32,"x_max":885,"o":"m 324 736 l 32 736 l 32 972 l 885 972 l 885 736 l 593 736 l 593 0 l 324 0 l 324 736 z "},"U":{"ha":1053,"x_min":74,"x_max":979,"o":"m 524 -18 q 336 8 419 -18 q 194 90 253 35 q 105 228 136 144 q 74 426 74 313 l 74 972 l 347 972 l 347 432 q 396 276 347 326 q 526 225 444 225 q 657 274 608 225 q 706 425 706 322 l 706 972 l 979 972 l 979 433 q 947 230 979 315 q 855 90 914 144 q 712 8 796 35 q 524 -18 628 -18 z "},"V":{"ha":1056,"x_min":8,"x_max":1047,"o":"m 8 972 l 310 972 l 531 357 l 751 972 l 1047 972 l 653 -7 l 403 -7 l 8 972 z "},"W":{"ha":1551,"x_min":21,"x_max":1531,"o":"m 21 972 l 306 972 l 475 410 l 663 975 l 894 975 l 1082 410 l 1251 972 l 1531 972 l 1206 -7 l 971 -7 l 775 553 l 581 -7 l 346 -7 l 21 972 z "},"X":{"ha":1017,"x_min":15,"x_max":1001,"o":"m 349 494 l 29 972 l 339 972 l 511 699 l 685 972 l 988 972 l 668 497 l 1001 0 l 692 0 l 506 293 l 318 0 l 15 0 l 349 494 z "},"Y":{"ha":1004,"x_min":-3,"x_max":1007,"o":"m 367 364 l -3 972 l 304 972 l 504 618 l 706 972 l 1007 972 l 638 368 l 638 0 l 367 0 l 367 364 z "},"Z":{"ha":969,"x_min":56,"x_max":915,"o":"m 56 196 l 543 744 l 72 744 l 72 972 l 915 972 l 915 776 l 428 228 l 915 228 l 915 0 l 56 0 l 56 196 z "},"[":{"ha":635,"x_min":92,"x_max":572,"o":"m 92 972 l 572 972 l 572 793 l 328 793 l 328 -1 l 572 -1 l 572 -181 l 92 -181 l 92 972 z "},"\\":{"ha":743,"x_min":-33,"x_max":796,"o":"m -33 1108 l 181 1108 l 796 -178 l 582 -178 l -33 1108 z "},"]":{"ha":635,"x_min":63,"x_max":543,"o":"m 63 -1 l 307 -1 l 307 793 l 63 793 l 63 972 l 543 972 l 543 -181 l 63 -181 l 63 -1 z "},"^":{"ha":694,"x_min":58,"x_max":636,"o":"m 258 971 l 436 971 l 636 685 l 451 685 l 346 819 l 240 685 l 58 685 l 258 971 z "},"_":{"ha":833,"x_min":-3,"x_max":836,"o":"m -3 -61 l 836 -61 l 836 -222 l -3 -222 l -3 -61 z "},"`":{"ha":694,"x_min":122,"x_max":513,"o":"m 122 993 l 368 1072 l 513 815 l 326 815 l 122 993 z "},"a":{"ha":832,"x_min":33,"x_max":768,"o":"m 381 149 q 475 182 439 149 q 511 272 511 215 l 511 307 q 465 321 492 315 q 408 326 438 326 q 319 301 350 326 q 288 233 288 275 l 288 231 q 314 170 288 192 q 381 149 340 149 m 286 -17 q 186 -1 232 -17 q 106 43 140 14 q 53 115 72 72 q 33 215 33 158 l 33 218 q 55 321 33 276 q 115 394 76 365 q 207 439 153 424 q 328 454 261 454 q 428 445 381 454 q 508 425 476 436 l 508 438 q 472 528 508 496 q 358 560 435 560 q 250 549 299 560 q 151 518 201 538 l 97 704 q 233 747 161 731 q 401 763 304 763 q 573 739 503 763 q 688 671 643 715 q 749 570 731 629 q 768 432 768 511 l 768 0 l 507 0 l 507 78 q 415 9 468 35 q 286 -17 361 -17 z "},"b":{"ha":939,"x_min":71,"x_max":896,"o":"m 482 204 q 592 251 547 204 q 636 375 636 299 l 636 378 q 592 500 636 453 q 482 547 547 547 q 422 535 450 547 q 374 499 394 522 q 341 446 353 476 q 329 378 329 415 l 329 375 q 341 306 329 338 q 374 252 353 275 q 422 217 394 229 q 482 204 450 204 m 564 -17 q 487 -8 521 -17 q 425 16 453 1 q 375 51 397 31 q 335 92 353 71 l 335 0 l 71 0 l 71 1014 l 335 1014 l 335 651 q 376 696 354 675 q 426 733 399 717 q 487 758 453 749 q 563 768 521 768 q 690 741 629 768 q 796 664 750 714 q 869 542 842 614 q 896 379 896 469 l 896 376 q 869 212 896 285 q 797 88 842 139 q 691 10 751 38 q 564 -17 631 -17 z "},"c":{"ha":790,"x_min":40,"x_max":768,"o":"m 433 -18 q 276 13 349 -18 q 152 97 204 44 q 70 222 100 150 q 40 372 40 293 l 40 375 q 70 526 40 454 q 153 651 100 597 q 280 735 206 704 q 443 767 354 767 q 638 721 560 767 q 764 599 715 675 l 585 465 q 525 524 557 503 q 444 544 493 544 q 385 531 413 544 q 339 495 358 518 q 308 442 319 472 q 297 378 297 413 l 297 375 q 308 308 297 339 q 339 253 319 276 q 386 217 358 231 q 447 204 414 204 q 527 225 494 204 q 592 282 560 246 l 768 154 q 636 29 715 76 q 433 -18 557 -18 z "},"d":{"ha":939,"x_min":43,"x_max":868,"o":"m 456 204 q 515 217 488 204 q 564 252 543 229 q 597 306 585 275 q 608 375 608 338 l 608 378 q 597 446 608 415 q 564 499 585 476 q 515 535 543 522 q 456 547 488 547 q 396 535 424 547 q 347 500 368 522 q 314 447 326 478 q 301 378 301 415 l 301 375 q 314 306 301 338 q 347 252 326 275 q 396 217 368 229 q 456 204 424 204 m 375 -17 q 248 10 308 -17 q 142 88 188 38 q 70 210 97 138 q 43 372 43 282 l 43 375 q 69 540 43 467 q 142 663 96 613 q 247 741 188 714 q 374 768 307 768 q 513 735 458 768 q 604 660 567 703 l 604 1014 l 868 1014 l 868 0 l 604 0 l 604 100 q 513 18 565 53 q 375 -17 460 -17 z "},"e":{"ha":840,"x_min":40,"x_max":799,"o":"m 551 438 q 510 537 544 500 q 421 574 475 574 q 335 537 368 574 q 290 438 301 500 l 551 438 m 443 -18 q 281 10 354 -18 q 153 90 207 39 q 70 213 100 140 q 40 372 40 285 l 40 375 q 68 528 40 457 q 147 653 96 600 q 267 738 197 707 q 419 768 336 768 q 588 735 517 768 q 706 645 660 701 q 776 515 753 589 q 799 357 799 440 q 799 331 799 344 q 797 303 799 317 l 294 303 q 352 210 310 240 q 457 179 394 179 q 544 197 504 179 q 624 256 583 215 l 769 135 q 635 24 715 65 q 443 -18 556 -18 z "},"f":{"ha":561,"x_min":31,"x_max":550,"o":"m 118 540 l 31 540 l 31 747 l 118 747 l 118 764 q 182 958 118 894 q 264 1008 217 993 q 378 1024 311 1024 q 478 1018 439 1024 q 550 1003 518 1013 l 550 817 q 503 828 526 824 q 451 832 479 832 q 376 761 376 832 l 376 743 l 549 743 l 549 540 l 381 540 l 381 0 l 118 0 l 118 540 z "},"g":{"ha":939,"x_min":43,"x_max":868,"o":"m 456 269 q 565 311 522 269 q 608 415 608 353 l 608 418 q 565 522 608 481 q 456 563 522 563 q 344 521 388 563 q 301 417 301 479 l 301 414 q 344 310 301 351 q 456 269 388 269 m 440 -225 q 238 -203 331 -225 q 64 -139 146 -181 l 149 36 q 272 -16 210 3 q 411 -35 335 -35 q 560 13 511 -35 q 608 150 608 60 l 608 179 q 514 100 568 133 q 376 67 460 67 q 247 91 307 67 q 141 160 186 115 q 69 270 96 206 q 43 415 43 335 l 43 418 q 69 564 43 499 q 140 674 96 629 q 244 744 185 719 q 368 768 303 768 q 507 738 453 768 q 604 663 561 707 l 604 751 l 868 751 l 868 181 q 844 3 868 76 q 771 -119 821 -69 q 639 -198 719 -171 q 440 -225 558 -225 z "},"h":{"ha":881,"x_min":71,"x_max":815,"o":"m 71 1014 l 335 1014 l 335 649 q 425 732 371 696 q 560 768 479 768 q 748 694 681 768 q 815 492 815 621 l 815 0 l 551 0 l 551 407 q 522 501 551 469 q 446 533 493 533 q 366 501 397 533 q 335 407 335 469 l 335 0 l 71 0 l 71 1014 z "},"i":{"ha":417,"x_min":71,"x_max":346,"o":"m 76 751 l 340 751 l 340 0 l 76 0 l 76 751 m 71 1014 l 346 1014 l 346 819 l 71 819 l 71 1014 z "},"j":{"ha":419,"x_min":-36,"x_max":346,"o":"m 72 -226 q 14 -223 40 -226 q -36 -217 -12 -219 l -36 -42 q -19 -43 -28 -43 q -1 -43 -10 -43 q 57 -24 38 -43 q 76 44 76 -4 l 76 751 l 340 751 l 340 33 q 322 -87 340 -37 q 270 -168 304 -137 q 186 -212 236 -199 q 72 -226 136 -226 m 71 1014 l 346 1014 l 346 819 l 71 819 l 71 1014 z "},"k":{"ha":838,"x_min":71,"x_max":844,"o":"m 71 1014 l 335 1014 l 335 500 l 539 751 l 838 751 l 576 450 l 844 0 l 554 0 l 403 256 l 335 176 l 335 0 l 71 0 l 71 1014 z "},"l":{"ha":417,"x_min":76,"x_max":340,"o":"m 76 1014 l 340 1014 l 340 0 l 76 0 l 76 1014 z "},"m":{"ha":1349,"x_min":71,"x_max":1283,"o":"m 71 751 l 335 751 l 335 649 q 425 732 371 696 q 558 768 479 768 q 689 736 633 768 q 775 646 744 704 q 883 735 824 703 q 1026 768 943 768 q 1215 697 1147 768 q 1283 493 1283 625 l 1283 0 l 1019 0 l 1019 408 q 992 502 1019 471 q 917 533 964 533 q 839 502 869 533 q 808 408 808 471 l 808 0 l 544 0 l 544 408 q 517 502 544 471 q 442 533 489 533 q 365 502 394 533 q 335 408 335 471 l 335 0 l 71 0 l 71 751 z "},"n":{"ha":881,"x_min":71,"x_max":815,"o":"m 71 751 l 335 751 l 335 646 q 375 692 353 669 q 425 731 397 714 q 486 758 453 747 q 560 768 519 768 q 748 694 681 768 q 815 492 815 621 l 815 0 l 551 0 l 551 407 q 522 501 551 469 q 446 533 493 533 q 366 501 397 533 q 335 407 335 469 l 335 0 l 71 0 l 71 751 z "},"o":{"ha":911,"x_min":40,"x_max":871,"o":"m 457 206 q 522 219 493 206 q 572 255 551 232 q 603 308 592 278 q 614 372 614 339 l 614 375 q 602 440 614 410 q 569 494 590 471 q 518 531 547 517 q 454 544 489 544 q 389 531 418 544 q 340 495 360 518 q 308 442 319 472 q 297 378 297 411 l 297 375 q 309 310 297 340 q 342 256 321 279 q 393 219 364 233 q 457 206 422 206 m 454 -18 q 288 13 364 -18 q 157 97 213 43 q 71 221 101 150 q 40 372 40 292 l 40 375 q 72 527 40 456 q 158 652 103 599 q 290 737 214 706 q 457 768 367 768 q 623 737 547 768 q 754 653 699 706 q 840 529 810 600 q 871 378 871 458 l 871 375 q 840 223 871 294 q 753 98 808 151 q 621 13 697 44 q 454 -18 544 -18 z "},"p":{"ha":939,"x_min":71,"x_max":896,"o":"m 482 204 q 592 251 547 204 q 636 375 636 299 l 636 378 q 592 500 636 453 q 482 547 547 547 q 422 535 450 547 q 374 499 394 522 q 341 446 353 476 q 329 378 329 415 l 329 375 q 341 306 329 338 q 374 252 353 275 q 422 217 394 229 q 482 204 450 204 m 71 751 l 335 751 l 335 651 q 376 696 354 675 q 426 733 399 717 q 487 758 453 749 q 563 768 521 768 q 690 741 629 768 q 796 664 750 714 q 869 542 842 614 q 896 379 896 469 l 896 376 q 869 212 896 285 q 797 88 842 139 q 691 10 751 38 q 564 -17 631 -17 q 487 -8 521 -17 q 425 16 453 1 q 375 51 397 31 q 335 92 353 71 l 335 -222 l 71 -222 l 71 751 z "},"q":{"ha":939,"x_min":43,"x_max":868,"o":"m 456 204 q 515 217 488 204 q 564 252 543 229 q 597 306 585 275 q 608 375 608 338 l 608 378 q 597 446 608 415 q 564 499 585 476 q 515 535 543 522 q 456 547 488 547 q 396 535 424 547 q 347 500 368 522 q 314 447 326 478 q 301 378 301 415 l 301 375 q 314 306 301 338 q 347 252 326 275 q 396 217 368 229 q 456 204 424 204 m 604 100 q 513 18 565 53 q 375 -17 460 -17 q 248 10 308 -17 q 142 88 188 38 q 70 210 97 138 q 43 372 43 282 l 43 375 q 69 540 43 467 q 142 663 96 613 q 247 741 188 714 q 374 768 307 768 q 513 735 458 768 q 604 660 567 703 l 604 751 l 868 751 l 868 -222 l 604 -222 l 604 100 z "},"r":{"ha":594,"x_min":71,"x_max":572,"o":"m 71 751 l 335 751 l 335 600 q 422 722 367 676 q 572 764 478 768 l 572 486 l 550 486 q 390 425 446 486 q 335 233 335 364 l 335 0 l 71 0 l 71 751 z "},"s":{"ha":714,"x_min":14,"x_max":676,"o":"m 369 -17 q 183 10 274 -17 q 14 94 93 38 l 113 254 q 245 190 178 211 q 371 168 313 168 q 438 208 438 168 l 438 211 q 407 246 438 233 q 317 275 376 258 q 213 308 261 289 q 128 353 164 326 q 71 419 92 381 q 50 515 50 458 l 50 518 q 73 624 50 578 q 136 702 96 671 q 231 750 176 733 q 351 767 286 767 q 515 744 435 767 q 661 679 596 721 l 571 513 q 453 563 513 544 q 349 582 393 582 q 303 572 318 582 q 288 546 288 561 l 288 543 q 319 508 288 521 q 410 476 350 494 q 514 442 465 461 q 599 397 563 424 q 656 331 635 369 q 676 238 676 292 l 676 235 q 654 126 676 172 q 592 47 632 79 q 494 -1 551 15 q 369 -17 438 -17 z "},"t":{"ha":599,"x_min":28,"x_max":556,"o":"m 369 -15 q 183 42 250 -15 q 117 233 117 99 l 117 539 l 28 539 l 28 751 l 117 751 l 117 942 l 381 942 l 381 751 l 556 751 l 556 539 l 381 539 l 381 285 q 399 227 381 244 q 453 210 417 210 q 504 217 479 210 q 553 235 529 224 l 553 28 q 471 -3 517 8 q 369 -15 425 -15 z "},"u":{"ha":881,"x_min":65,"x_max":810,"o":"m 321 -17 q 133 57 200 -17 q 65 260 65 131 l 65 751 l 329 751 l 329 344 q 358 250 329 282 q 436 218 388 218 q 515 250 483 218 q 546 344 546 282 l 546 751 l 810 751 l 810 0 l 546 0 l 546 103 q 456 19 510 56 q 321 -17 401 -17 z "},"v":{"ha":868,"x_min":14,"x_max":854,"o":"m 14 751 l 292 751 l 436 313 l 581 751 l 854 751 l 554 -6 l 314 -6 l 14 751 z "},"w":{"ha":1196,"x_min":17,"x_max":1179,"o":"m 17 751 l 275 751 l 374 374 l 489 754 l 707 754 l 824 371 l 925 751 l 1179 751 l 947 -6 l 719 -6 l 597 385 l 472 -6 l 246 -6 l 17 751 z "},"x":{"ha":818,"x_min":11,"x_max":807,"o":"m 264 379 l 15 751 l 300 751 l 411 567 l 522 751 l 801 751 l 554 381 l 807 0 l 524 0 l 407 193 l 289 0 l 11 0 l 264 379 z "},"y":{"ha":869,"x_min":15,"x_max":854,"o":"m 293 -226 q 163 -208 222 -226 q 51 -161 104 -190 l 133 24 q 196 -6 165 4 q 249 -17 226 -17 q 283 -10 268 -17 q 310 14 297 -4 l 15 751 l 292 751 l 442 299 l 583 751 l 854 751 l 579 18 q 528 -94 554 -47 q 468 -169 501 -140 q 392 -212 435 -199 q 293 -226 349 -226 z "},"z":{"ha":782,"x_min":44,"x_max":742,"o":"m 44 174 l 392 542 l 57 542 l 57 751 l 742 751 l 742 578 l 393 210 l 742 210 l 742 0 l 44 0 l 44 174 z "},"{":{"ha":681,"x_min":47,"x_max":636,"o":"m 596 -196 q 422 -161 492 -183 q 308 -106 351 -139 q 247 -29 265 -74 q 229 72 229 15 q 230 94 229 81 q 231 122 231 107 q 233 152 232 138 q 233 175 233 167 q 192 283 233 254 q 69 311 151 311 l 47 311 l 47 486 l 69 486 q 192 515 151 486 q 233 622 233 543 q 233 645 233 631 q 231 675 232 660 q 230 703 231 690 q 229 725 229 717 q 247 826 229 782 q 308 903 265 871 q 422 958 351 936 q 596 993 492 981 l 636 839 q 547 813 581 826 q 494 781 513 799 q 470 738 476 763 q 464 682 464 714 q 466 635 464 664 q 468 585 468 607 q 428 464 468 508 q 313 399 389 419 q 428 333 389 378 q 468 213 468 289 q 466 162 468 190 q 464 115 464 133 q 470 59 464 83 q 494 17 476 35 q 547 -15 513 -1 q 636 -42 581 -29 l 596 -196 z "},"|":{"ha":493,"x_min":146,"x_max":347,"o":"m 146 1108 l 347 1108 l 347 -178 l 146 -178 l 146 1108 z "},"}":{"ha":681,"x_min":44,"x_max":633,"o":"m 44 -42 q 134 -15 100 -29 q 186 17 168 -1 q 210 59 204 35 q 217 115 217 83 q 215 162 217 133 q 213 213 213 190 q 252 333 213 289 q 368 399 292 378 q 252 464 292 419 q 213 585 213 508 q 215 635 213 607 q 217 682 217 664 q 210 738 217 714 q 186 781 204 763 q 134 813 168 799 q 44 839 100 826 l 85 993 q 259 958 189 981 q 372 903 329 936 q 433 826 415 871 q 451 725 451 782 q 451 703 451 717 q 449 675 450 690 q 448 645 449 660 q 447 622 447 631 q 488 515 447 543 q 611 486 529 486 l 633 486 l 633 311 l 611 311 q 488 283 529 311 q 447 175 447 254 q 448 152 447 167 q 449 122 449 138 q 451 94 450 107 q 451 72 451 81 q 433 -29 451 15 q 372 -106 415 -74 q 259 -161 329 -139 q 85 -196 189 -183 l 44 -42 z "},"~":{"ha":701,"x_min":57,"x_max":644,"o":"m 57 340 q 119 496 81 444 q 229 547 158 547 q 292 539 260 547 q 352 520 324 531 q 405 501 381 510 q 446 493 429 493 q 489 509 475 493 q 517 557 503 525 l 644 522 q 582 367 621 418 q 472 315 543 315 q 409 324 440 315 q 349 342 378 332 q 296 361 321 353 q 254 369 271 369 q 212 353 225 369 q 185 306 199 338 l 57 340 z "},"Ä":{"ha":1104,"x_min":8,"x_max":1096,"o":"m 286 1236 l 515 1236 l 515 1038 l 286 1038 l 286 1236 m 590 1236 l 819 1236 l 819 1038 l 590 1038 l 590 1236 m 658 383 l 550 660 l 440 383 l 658 383 m 422 979 l 682 979 l 1096 0 l 807 0 l 736 174 l 361 174 l 292 0 l 8 0 l 422 979 z "},"Å":{"ha":1104,"x_min":8,"x_max":1096,"o":"m 658 383 l 550 660 l 440 383 l 658 383 m 553 969 q 617 997 590 969 q 644 1061 644 1024 l 644 1064 q 617 1127 644 1100 q 553 1154 590 1154 q 487 1127 514 1154 q 460 1064 460 1100 l 460 1061 q 487 997 460 1024 q 553 969 514 969 m 411 954 q 380 1003 392 976 q 368 1061 368 1031 l 368 1064 q 383 1132 368 1100 q 424 1188 399 1164 q 482 1225 449 1211 q 553 1239 515 1239 q 622 1225 589 1239 q 681 1188 656 1211 q 721 1132 706 1164 q 736 1064 736 1100 l 736 1061 q 724 1003 736 1031 q 693 954 713 976 l 1096 0 l 807 0 l 736 174 l 361 174 l 292 0 l 8 0 l 411 954 z "},"Ç":{"ha":1014,"x_min":53,"x_max":985,"o":"m 319 -151 l 428 -4 q 277 60 346 17 q 158 168 208 104 q 81 312 108 232 q 53 483 53 392 l 53 486 q 92 684 53 592 q 199 845 131 776 q 360 953 267 914 q 565 992 454 992 q 701 977 640 992 q 813 935 763 963 q 905 871 864 908 q 978 789 946 833 l 775 632 q 683 715 733 685 q 563 746 633 746 q 469 726 511 746 q 396 671 426 706 q 348 589 365 636 q 331 489 331 542 l 331 486 q 348 384 331 432 q 396 301 365 336 q 469 247 426 267 q 563 226 511 226 q 631 235 600 226 q 688 259 663 243 q 737 297 714 275 q 782 344 760 318 l 985 200 q 916 119 953 157 q 833 54 879 82 q 731 8 788 26 q 607 -17 675 -11 l 529 -240 l 319 -151 z "},"É":{"ha":926,"x_min":86,"x_max":875,"o":"m 494 1294 l 740 1215 l 536 1038 l 350 1038 l 494 1294 m 86 972 l 868 972 l 868 743 l 353 743 l 353 596 l 819 596 l 819 383 l 353 383 l 353 229 l 875 229 l 875 0 l 86 0 l 86 972 z "},"Ñ":{"ha":1090,"x_min":86,"x_max":1004,"o":"m 253 1063 q 314 1218 275 1167 q 425 1269 353 1269 q 488 1261 456 1269 q 548 1242 519 1253 q 601 1224 576 1232 q 642 1215 625 1215 q 685 1231 671 1215 q 713 1279 699 1247 l 839 1244 q 778 1089 817 1140 q 667 1038 739 1038 q 603 1046 635 1038 q 544 1065 572 1054 q 491 1083 515 1075 q 450 1092 467 1092 q 407 1076 421 1092 q 379 1028 393 1060 l 253 1063 m 86 972 l 338 972 l 738 458 l 738 972 l 1004 972 l 1004 0 l 768 0 l 353 533 l 353 0 l 86 0 l 86 972 z "},"Ö":{"ha":1154,"x_min":53,"x_max":1100,"o":"m 311 1236 l 540 1236 l 540 1038 l 311 1038 l 311 1236 m 615 1236 l 844 1236 l 844 1038 l 615 1038 l 615 1236 m 578 224 q 679 244 633 224 q 757 301 725 265 q 807 383 789 336 q 825 483 825 431 l 825 486 q 807 586 825 539 q 756 669 789 633 q 676 727 722 706 q 575 749 631 749 q 474 728 519 749 q 397 672 429 707 q 347 589 364 636 q 329 489 329 542 l 329 486 q 347 386 329 433 q 398 303 365 339 q 476 245 431 267 q 578 224 522 224 m 575 -19 q 367 20 463 -19 q 201 128 271 60 q 92 288 132 196 q 53 483 53 379 l 53 486 q 92 683 53 590 q 203 844 132 775 q 369 952 274 913 q 578 992 465 992 q 786 952 690 992 q 951 844 882 913 q 1060 685 1021 776 q 1100 489 1100 593 l 1100 486 q 1060 290 1100 382 q 950 128 1021 197 q 783 20 879 60 q 575 -19 688 -19 z "},"Ü":{"ha":1053,"x_min":74,"x_max":979,"o":"m 260 1236 l 489 1236 l 489 1038 l 260 1038 l 260 1236 m 564 1236 l 793 1236 l 793 1038 l 564 1038 l 564 1236 m 524 -18 q 336 8 419 -18 q 194 90 253 35 q 105 228 136 144 q 74 426 74 313 l 74 972 l 347 972 l 347 432 q 396 276 347 326 q 526 225 444 225 q 657 274 608 225 q 706 425 706 322 l 706 972 l 979 972 l 979 433 q 947 230 979 315 q 855 90 914 144 q 712 8 796 35 q 524 -18 628 -18 z "},"á":{"ha":832,"x_min":33,"x_max":768,"o":"m 444 1075 l 690 996 l 486 818 l 300 818 l 444 1075 m 381 149 q 475 182 439 149 q 511 272 511 215 l 511 307 q 465 321 492 315 q 408 326 438 326 q 319 301 350 326 q 288 233 288 275 l 288 231 q 314 170 288 192 q 381 149 340 149 m 286 -17 q 186 -1 232 -17 q 106 43 140 14 q 53 115 72 72 q 33 215 33 158 l 33 218 q 55 321 33 276 q 115 394 76 365 q 207 439 153 424 q 328 454 261 454 q 428 445 381 454 q 508 425 476 436 l 508 438 q 472 528 508 496 q 358 560 435 560 q 250 549 299 560 q 151 518 201 538 l 97 704 q 233 747 161 731 q 401 763 304 763 q 573 739 503 763 q 688 671 643 715 q 749 570 731 629 q 768 432 768 511 l 768 0 l 507 0 l 507 78 q 415 9 468 35 q 286 -17 361 -17 z "},"à":{"ha":832,"x_min":33,"x_max":768,"o":"m 146 996 l 392 1075 l 536 818 l 350 818 l 146 996 m 381 149 q 475 182 439 149 q 511 272 511 215 l 511 307 q 465 321 492 315 q 408 326 438 326 q 319 301 350 326 q 288 233 288 275 l 288 231 q 314 170 288 192 q 381 149 340 149 m 286 -17 q 186 -1 232 -17 q 106 43 140 14 q 53 115 72 72 q 33 215 33 158 l 33 218 q 55 321 33 276 q 115 394 76 365 q 207 439 153 424 q 328 454 261 454 q 428 445 381 454 q 508 425 476 436 l 508 438 q 472 528 508 496 q 358 560 435 560 q 250 549 299 560 q 151 518 201 538 l 97 704 q 233 747 161 731 q 401 763 304 763 q 573 739 503 763 q 688 671 643 715 q 749 570 731 629 q 768 432 768 511 l 768 0 l 507 0 l 507 78 q 415 9 468 35 q 286 -17 361 -17 z "},"â":{"ha":832,"x_min":33,"x_max":768,"o":"m 306 1044 l 519 1044 l 697 815 l 528 815 l 411 900 l 294 815 l 128 815 l 306 1044 m 381 149 q 475 182 439 149 q 511 272 511 215 l 511 307 q 465 321 492 315 q 408 326 438 326 q 319 301 350 326 q 288 233 288 275 l 288 231 q 314 170 288 192 q 381 149 340 149 m 286 -17 q 186 -1 232 -17 q 106 43 140 14 q 53 115 72 72 q 33 215 33 158 l 33 218 q 55 321 33 276 q 115 394 76 365 q 207 439 153 424 q 328 454 261 454 q 428 445 381 454 q 508 425 476 436 l 508 438 q 472 528 508 496 q 358 560 435 560 q 250 549 299 560 q 151 518 201 538 l 97 704 q 233 747 161 731 q 401 763 304 763 q 573 739 503 763 q 688 671 643 715 q 749 570 731 629 q 768 432 768 511 l 768 0 l 507 0 l 507 78 q 415 9 468 35 q 286 -17 361 -17 z "},"ä":{"ha":832,"x_min":33,"x_max":768,"o":"m 146 1017 l 375 1017 l 375 818 l 146 818 l 146 1017 m 450 1017 l 679 1017 l 679 818 l 450 818 l 450 1017 m 381 149 q 475 182 439 149 q 511 272 511 215 l 511 307 q 465 321 492 315 q 408 326 438 326 q 319 301 350 326 q 288 233 288 275 l 288 231 q 314 170 288 192 q 381 149 340 149 m 286 -17 q 186 -1 232 -17 q 106 43 140 14 q 53 115 72 72 q 33 215 33 158 l 33 218 q 55 321 33 276 q 115 394 76 365 q 207 439 153 424 q 328 454 261 454 q 428 445 381 454 q 508 425 476 436 l 508 438 q 472 528 508 496 q 358 560 435 560 q 250 549 299 560 q 151 518 201 538 l 97 704 q 233 747 161 731 q 401 763 304 763 q 573 739 503 763 q 688 671 643 715 q 749 570 731 629 q 768 432 768 511 l 768 0 l 507 0 l 507 78 q 415 9 468 35 q 286 -17 361 -17 z "},"ã":{"ha":832,"x_min":33,"x_max":768,"o":"m 122 840 q 183 996 144 944 q 294 1047 222 1047 q 357 1039 325 1047 q 417 1020 389 1031 q 470 1001 446 1010 q 511 993 494 993 q 554 1009 540 993 q 582 1057 568 1025 l 708 1022 q 647 867 686 918 q 536 815 608 815 q 473 824 504 815 q 413 842 442 832 q 360 861 385 853 q 319 869 336 869 q 276 853 290 869 q 249 806 263 838 l 122 840 m 381 149 q 475 182 439 149 q 511 272 511 215 l 511 307 q 465 321 492 315 q 408 326 438 326 q 319 301 350 326 q 288 233 288 275 l 288 231 q 314 170 288 192 q 381 149 340 149 m 286 -17 q 186 -1 232 -17 q 106 43 140 14 q 53 115 72 72 q 33 215 33 158 l 33 218 q 55 321 33 276 q 115 394 76 365 q 207 439 153 424 q 328 454 261 454 q 428 445 381 454 q 508 425 476 436 l 508 438 q 472 528 508 496 q 358 560 435 560 q 250 549 299 560 q 151 518 201 538 l 97 704 q 233 747 161 731 q 401 763 304 763 q 573 739 503 763 q 688 671 643 715 q 749 570 731 629 q 768 432 768 511 l 768 0 l 507 0 l 507 78 q 415 9 468 35 q 286 -17 361 -17 z "},"å":{"ha":832,"x_min":33,"x_max":768,"o":"m 413 906 q 478 933 451 906 q 506 997 506 960 l 506 1000 q 478 1063 506 1036 q 413 1090 451 1090 q 347 1063 374 1090 q 319 1000 319 1036 l 319 997 q 347 933 319 960 q 413 906 374 906 m 413 821 q 343 835 376 821 q 284 874 310 850 q 243 929 258 897 q 228 997 228 961 l 228 1000 q 243 1068 228 1036 q 284 1124 258 1100 q 343 1161 310 1147 q 413 1175 376 1175 q 482 1161 449 1175 q 541 1124 515 1147 q 582 1068 567 1100 q 597 1000 597 1036 l 597 997 q 582 929 597 961 q 541 874 567 897 q 482 835 515 850 q 413 821 449 821 m 381 149 q 475 182 439 149 q 511 272 511 215 l 511 307 q 465 321 492 315 q 408 326 438 326 q 319 301 350 326 q 288 233 288 275 l 288 231 q 314 170 288 192 q 381 149 340 149 m 286 -17 q 186 -1 232 -17 q 106 43 140 14 q 53 115 72 72 q 33 215 33 158 l 33 218 q 55 321 33 276 q 115 394 76 365 q 207 439 153 424 q 328 454 261 454 q 428 445 381 454 q 508 425 476 436 l 508 438 q 472 528 508 496 q 358 560 435 560 q 250 549 299 560 q 151 518 201 538 l 97 704 q 233 747 161 731 q 401 763 304 763 q 573 739 503 763 q 688 671 643 715 q 749 570 731 629 q 768 432 768 511 l 768 0 l 507 0 l 507 78 q 415 9 468 35 q 286 -17 361 -17 z "},"ç":{"ha":790,"x_min":40,"x_max":768,"o":"m 196 -151 l 308 1 q 199 57 249 21 q 115 142 150 93 q 60 249 79 190 q 40 372 40 307 l 40 375 q 70 526 40 454 q 153 651 100 597 q 280 735 206 704 q 443 767 354 767 q 638 721 560 767 q 764 599 715 675 l 585 465 q 525 524 557 503 q 444 544 493 544 q 385 531 413 544 q 339 495 358 518 q 308 442 319 472 q 297 378 297 413 l 297 375 q 308 308 297 339 q 339 253 319 276 q 386 217 358 231 q 447 204 414 204 q 527 225 494 204 q 592 282 560 246 l 768 154 q 654 40 721 85 q 485 -15 588 -6 l 406 -240 l 196 -151 z "},"é":{"ha":840,"x_min":40,"x_max":799,"o":"m 461 1075 l 707 996 l 503 818 l 317 818 l 461 1075 m 551 438 q 510 537 544 500 q 421 574 475 574 q 335 537 368 574 q 290 438 301 500 l 551 438 m 443 -18 q 281 10 354 -18 q 153 90 207 39 q 70 213 100 140 q 40 372 40 285 l 40 375 q 68 528 40 457 q 147 653 96 600 q 267 738 197 707 q 419 768 336 768 q 588 735 517 768 q 706 645 660 701 q 776 515 753 589 q 799 357 799 440 q 799 331 799 344 q 797 303 799 317 l 294 303 q 352 210 310 240 q 457 179 394 179 q 544 197 504 179 q 624 256 583 215 l 769 135 q 635 24 715 65 q 443 -18 556 -18 z "},"è":{"ha":840,"x_min":40,"x_max":799,"o":"m 135 996 l 381 1075 l 525 818 l 339 818 l 135 996 m 551 438 q 510 537 544 500 q 421 574 475 574 q 335 537 368 574 q 290 438 301 500 l 551 438 m 443 -18 q 281 10 354 -18 q 153 90 207 39 q 70 213 100 140 q 40 372 40 285 l 40 375 q 68 528 40 457 q 147 653 96 600 q 267 738 197 707 q 419 768 336 768 q 588 735 517 768 q 706 645 660 701 q 776 515 753 589 q 799 357 799 440 q 799 331 799 344 q 797 303 799 317 l 294 303 q 352 210 310 240 q 457 179 394 179 q 544 197 504 179 q 624 256 583 215 l 769 135 q 635 24 715 65 q 443 -18 556 -18 z "},"ê":{"ha":840,"x_min":40,"x_max":799,"o":"m 314 1042 l 528 1042 l 706 813 l 536 813 l 419 897 l 303 813 l 136 813 l 314 1042 m 551 438 q 510 537 544 500 q 421 574 475 574 q 335 537 368 574 q 290 438 301 500 l 551 438 m 443 -18 q 281 10 354 -18 q 153 90 207 39 q 70 213 100 140 q 40 372 40 285 l 40 375 q 68 528 40 457 q 147 653 96 600 q 267 738 197 707 q 419 768 336 768 q 588 735 517 768 q 706 645 660 701 q 776 515 753 589 q 799 357 799 440 q 799 331 799 344 q 797 303 799 317 l 294 303 q 352 210 310 240 q 457 179 394 179 q 544 197 504 179 q 624 256 583 215 l 769 135 q 635 24 715 65 q 443 -18 556 -18 z "},"ë":{"ha":840,"x_min":40,"x_max":799,"o":"m 154 1014 l 383 1014 l 383 815 l 154 815 l 154 1014 m 458 1014 l 688 1014 l 688 815 l 458 815 l 458 1014 m 551 438 q 510 537 544 500 q 421 574 475 574 q 335 537 368 574 q 290 438 301 500 l 551 438 m 443 -18 q 281 10 354 -18 q 153 90 207 39 q 70 213 100 140 q 40 372 40 285 l 40 375 q 68 528 40 457 q 147 653 96 600 q 267 738 197 707 q 419 768 336 768 q 588 735 517 768 q 706 645 660 701 q 776 515 753 589 q 799 357 799 440 q 799 331 799 344 q 797 303 799 317 l 294 303 q 352 210 310 240 q 457 179 394 179 q 544 197 504 179 q 624 256 583 215 l 769 135 q 635 24 715 65 q 443 -18 556 -18 z "},"í":{"ha":417,"x_min":76,"x_max":492,"o":"m 246 1072 l 492 993 l 288 815 l 101 815 l 246 1072 m 76 751 l 340 751 l 340 0 l 76 0 l 76 751 z "},"ì":{"ha":417,"x_min":-72,"x_max":340,"o":"m -72 993 l 175 1072 l 319 815 l 133 815 l -72 993 m 76 751 l 340 751 l 340 0 l 76 0 l 76 751 z "},"î":{"ha":417,"x_min":-75,"x_max":494,"o":"m 103 1044 l 317 1044 l 494 815 l 325 815 l 208 900 l 92 815 l -75 815 l 103 1044 m 76 751 l 340 751 l 340 0 l 76 0 l 76 751 z "},"ï":{"ha":417,"x_min":-57,"x_max":476,"o":"m -57 1014 l 172 1014 l 172 815 l -57 815 l -57 1014 m 247 1014 l 476 1014 l 476 815 l 247 815 l 247 1014 m 76 751 l 340 751 l 340 0 l 76 0 l 76 751 z "},"ñ":{"ha":881,"x_min":71,"x_max":815,"o":"m 154 840 q 215 996 176 944 q 326 1047 254 1047 q 389 1039 357 1047 q 449 1020 421 1031 q 502 1001 478 1010 q 543 993 526 993 q 586 1009 572 993 q 614 1057 600 1025 l 740 1022 q 679 867 718 918 q 568 815 640 815 q 505 824 536 815 q 445 842 474 832 q 392 861 417 853 q 351 869 368 869 q 308 853 322 869 q 281 806 294 838 l 154 840 m 71 751 l 335 751 l 335 646 q 375 692 353 669 q 425 731 397 714 q 486 758 453 747 q 560 768 519 768 q 748 694 681 768 q 815 492 815 621 l 815 0 l 551 0 l 551 407 q 522 501 551 469 q 446 533 493 533 q 366 501 397 533 q 335 407 335 469 l 335 0 l 71 0 l 71 751 z "},"ó":{"ha":911,"x_min":40,"x_max":871,"o":"m 499 1075 l 744 996 l 540 818 l 354 818 l 499 1075 m 457 206 q 522 219 493 206 q 572 255 551 232 q 603 308 592 278 q 614 372 614 339 l 614 375 q 602 440 614 410 q 569 494 590 471 q 518 531 547 517 q 454 544 489 544 q 389 531 418 544 q 340 495 360 518 q 308 442 319 472 q 297 378 297 411 l 297 375 q 309 310 297 340 q 342 256 321 279 q 393 219 364 233 q 457 206 422 206 m 454 -18 q 288 13 364 -18 q 157 97 213 43 q 71 221 101 150 q 40 372 40 292 l 40 375 q 72 527 40 456 q 158 652 103 599 q 290 737 214 706 q 457 768 367 768 q 623 737 547 768 q 754 653 699 706 q 840 529 810 600 q 871 378 871 458 l 871 375 q 840 223 871 294 q 753 98 808 151 q 621 13 697 44 q 454 -18 544 -18 z "},"ò":{"ha":911,"x_min":40,"x_max":871,"o":"m 167 996 l 413 1075 l 557 818 l 371 818 l 167 996 m 457 206 q 522 219 493 206 q 572 255 551 232 q 603 308 592 278 q 614 372 614 339 l 614 375 q 602 440 614 410 q 569 494 590 471 q 518 531 547 517 q 454 544 489 544 q 389 531 418 544 q 340 495 360 518 q 308 442 319 472 q 297 378 297 411 l 297 375 q 309 310 297 340 q 342 256 321 279 q 393 219 364 233 q 457 206 422 206 m 454 -18 q 288 13 364 -18 q 157 97 213 43 q 71 221 101 150 q 40 372 40 292 l 40 375 q 72 527 40 456 q 158 652 103 599 q 290 737 214 706 q 457 768 367 768 q 623 737 547 768 q 754 653 699 706 q 840 529 810 600 q 871 378 871 458 l 871 375 q 840 223 871 294 q 753 98 808 151 q 621 13 697 44 q 454 -18 544 -18 z "},"ô":{"ha":911,"x_min":40,"x_max":871,"o":"m 349 1042 l 563 1042 l 740 813 l 571 813 l 454 897 l 338 813 l 171 813 l 349 1042 m 457 206 q 522 219 493 206 q 572 255 551 232 q 603 308 592 278 q 614 372 614 339 l 614 375 q 602 440 614 410 q 569 494 590 471 q 518 531 547 517 q 454 544 489 544 q 389 531 418 544 q 340 495 360 518 q 308 442 319 472 q 297 378 297 411 l 297 375 q 309 310 297 340 q 342 256 321 279 q 393 219 364 233 q 457 206 422 206 m 454 -18 q 288 13 364 -18 q 157 97 213 43 q 71 221 101 150 q 40 372 40 292 l 40 375 q 72 527 40 456 q 158 652 103 599 q 290 737 214 706 q 457 768 367 768 q 623 737 547 768 q 754 653 699 706 q 840 529 810 600 q 871 378 871 458 l 871 375 q 840 223 871 294 q 753 98 808 151 q 621 13 697 44 q 454 -18 544 -18 z "},"ö":{"ha":911,"x_min":40,"x_max":871,"o":"m 189 1014 l 418 1014 l 418 815 l 189 815 l 189 1014 m 493 1014 l 722 1014 l 722 815 l 493 815 l 493 1014 m 457 206 q 522 219 493 206 q 572 255 551 232 q 603 308 592 278 q 614 372 614 339 l 614 375 q 602 440 614 410 q 569 494 590 471 q 518 531 547 517 q 454 544 489 544 q 389 531 418 544 q 340 495 360 518 q 308 442 319 472 q 297 378 297 411 l 297 375 q 309 310 297 340 q 342 256 321 279 q 393 219 364 233 q 457 206 422 206 m 454 -18 q 288 13 364 -18 q 157 97 213 43 q 71 221 101 150 q 40 372 40 292 l 40 375 q 72 527 40 456 q 158 652 103 599 q 290 737 214 706 q 457 768 367 768 q 623 737 547 768 q 754 653 699 706 q 840 529 810 600 q 871 378 871 458 l 871 375 q 840 223 871 294 q 753 98 808 151 q 621 13 697 44 q 454 -18 544 -18 z "},"õ":{"ha":911,"x_min":40,"x_max":871,"o":"m 163 840 q 224 996 185 944 q 335 1047 263 1047 q 397 1039 365 1047 q 458 1020 429 1031 q 510 1001 486 1010 q 551 993 535 993 q 594 1009 581 993 q 622 1057 608 1025 l 749 1022 q 688 867 726 918 q 576 815 649 815 q 513 824 544 815 q 453 842 482 832 q 401 861 425 853 q 360 869 376 869 q 317 853 331 869 q 289 806 303 838 l 163 840 m 457 206 q 522 219 493 206 q 572 255 551 232 q 603 308 592 278 q 614 372 614 339 l 614 375 q 602 440 614 410 q 569 494 590 471 q 518 531 547 517 q 454 544 489 544 q 389 531 418 544 q 340 495 360 518 q 308 442 319 472 q 297 378 297 411 l 297 375 q 309 310 297 340 q 342 256 321 279 q 393 219 364 233 q 457 206 422 206 m 454 -18 q 288 13 364 -18 q 157 97 213 43 q 71 221 101 150 q 40 372 40 292 l 40 375 q 72 527 40 456 q 158 652 103 599 q 290 737 214 706 q 457 768 367 768 q 623 737 547 768 q 754 653 699 706 q 840 529 810 600 q 871 378 871 458 l 871 375 q 840 223 871 294 q 753 98 808 151 q 621 13 697 44 q 454 -18 544 -18 z "},"ú":{"ha":881,"x_min":65,"x_max":810,"o":"m 461 1072 l 707 993 l 503 815 l 317 815 l 461 1072 m 321 -17 q 133 57 200 -17 q 65 260 65 131 l 65 751 l 329 751 l 329 344 q 358 250 329 282 q 436 218 388 218 q 515 250 483 218 q 546 344 546 282 l 546 751 l 810 751 l 810 0 l 546 0 l 546 103 q 456 19 510 56 q 321 -17 401 -17 z "},"ù":{"ha":881,"x_min":65,"x_max":810,"o":"m 174 993 l 419 1072 l 564 815 l 378 815 l 174 993 m 321 -17 q 133 57 200 -17 q 65 260 65 131 l 65 751 l 329 751 l 329 344 q 358 250 329 282 q 436 218 388 218 q 515 250 483 218 q 546 344 546 282 l 546 751 l 810 751 l 810 0 l 546 0 l 546 103 q 456 19 510 56 q 321 -17 401 -17 z "},"û":{"ha":881,"x_min":65,"x_max":810,"o":"m 333 1044 l 547 1044 l 725 815 l 556 815 l 439 900 l 322 815 l 156 815 l 333 1044 m 321 -17 q 133 57 200 -17 q 65 260 65 131 l 65 751 l 329 751 l 329 344 q 358 250 329 282 q 436 218 388 218 q 515 250 483 218 q 546 344 546 282 l 546 751 l 810 751 l 810 0 l 546 0 l 546 103 q 456 19 510 56 q 321 -17 401 -17 z "},"ü":{"ha":881,"x_min":65,"x_max":810,"o":"m 174 1014 l 403 1014 l 403 815 l 174 815 l 174 1014 m 478 1014 l 707 1014 l 707 815 l 478 815 l 478 1014 m 321 -17 q 133 57 200 -17 q 65 260 65 131 l 65 751 l 329 751 l 329 344 q 358 250 329 282 q 436 218 388 218 q 515 250 483 218 q 546 344 546 282 l 546 751 l 810 751 l 810 0 l 546 0 l 546 103 q 456 19 510 56 q 321 -17 401 -17 z "},"†":{"ha":569,"x_min":56,"x_max":514,"o":"m 229 685 l 56 667 l 56 811 l 228 793 l 207 972 l 363 972 l 342 793 l 514 811 l 514 667 l 340 685 l 354 310 l 215 310 l 229 685 z "},"°":{"ha":656,"x_min":75,"x_max":581,"o":"m 328 617 q 411 651 378 617 q 444 733 444 685 l 444 736 q 435 783 444 761 q 410 820 426 804 q 373 845 394 836 q 328 854 351 854 q 245 819 279 854 q 211 736 211 785 l 211 733 q 244 651 211 685 q 328 617 278 617 m 328 489 q 231 508 276 489 q 150 561 185 528 q 95 639 115 594 q 75 733 75 683 l 75 736 q 96 831 75 786 q 151 910 117 876 q 232 964 186 944 q 328 983 278 983 q 424 964 378 983 q 504 910 469 944 q 560 831 539 876 q 581 736 581 786 l 581 733 q 560 639 581 683 q 506 561 540 594 q 425 508 471 528 q 328 489 379 489 z "},"¢":{"ha":799,"x_min":44,"x_max":771,"o":"m 414 682 q 312 619 350 672 q 274 496 274 565 l 274 493 q 294 396 274 438 q 351 331 314 354 l 414 682 m 304 128 q 199 183 246 147 q 117 265 151 218 q 63 370 82 313 q 44 490 44 428 l 44 493 q 73 644 44 574 q 153 767 101 715 q 278 850 206 819 q 439 883 350 881 l 456 981 l 615 981 l 594 860 q 698 802 654 838 q 769 725 742 767 l 608 601 q 578 632 594 618 q 543 657 563 646 l 479 307 q 551 333 518 313 q 611 386 583 354 l 771 269 q 644 151 721 196 q 460 104 568 107 l 440 -8 l 281 -8 l 304 128 z "},"£":{"ha":888,"x_min":61,"x_max":850,"o":"m 61 160 l 165 200 l 165 365 l 61 365 l 61 554 l 165 554 l 165 625 q 190 777 165 708 q 261 893 214 846 q 526 989 357 989 q 718 949 640 989 q 850 849 796 910 l 686 669 q 621 728 654 707 q 544 749 588 749 q 463 716 492 749 q 433 625 433 683 l 433 554 l 733 554 l 733 365 l 433 365 l 433 213 l 840 213 l 840 0 l 61 0 l 61 160 z "},"§":{"ha":869,"x_min":58,"x_max":811,"o":"m 538 413 q 589 425 569 413 q 608 461 608 438 l 608 464 q 572 503 608 488 q 468 535 535 519 q 331 560 369 560 q 279 547 299 560 q 260 511 260 535 l 260 508 q 297 469 260 485 q 400 438 335 453 q 538 413 500 413 m 429 -18 q 239 13 325 -18 q 100 92 153 44 l 207 243 q 319 183 260 206 q 435 161 378 161 q 492 172 475 161 q 510 203 510 183 l 510 206 q 478 239 510 225 q 375 268 446 253 q 252 299 310 282 q 151 340 194 317 q 83 394 108 363 q 58 471 58 426 l 58 474 q 94 572 58 536 q 185 626 129 607 q 119 764 119 676 l 119 767 q 140 853 119 813 q 200 925 160 894 q 300 973 240 956 q 440 990 360 990 q 631 959 544 990 q 769 881 717 928 l 663 729 q 551 789 610 767 q 435 811 492 811 q 377 800 394 811 q 360 769 360 789 l 360 767 q 390 733 360 747 q 494 704 419 719 q 617 672 560 689 q 718 633 675 656 q 786 578 761 610 q 811 501 811 546 l 811 499 q 776 401 811 438 q 685 346 740 365 q 733 288 715 322 q 750 210 750 253 l 750 207 q 730 120 750 161 q 670 49 710 79 q 570 0 631 18 q 429 -18 510 -18 z "},"•":{"ha":694,"x_min":113,"x_max":582,"o":"m 347 254 q 256 272 299 254 q 182 322 214 290 q 131 397 150 354 q 113 488 113 439 l 113 490 q 131 581 113 539 q 182 656 150 624 q 256 706 214 688 q 347 724 299 724 q 438 706 396 724 q 513 656 481 688 q 563 581 544 624 q 582 490 582 539 l 582 488 q 563 397 582 439 q 513 322 544 354 q 438 272 481 290 q 347 254 396 254 z "},"¶":{"ha":828,"x_min":31,"x_max":742,"o":"m 471 306 l 442 306 q 276 327 351 306 q 147 390 201 349 q 61 493 92 432 q 31 635 31 554 l 31 638 q 60 781 31 718 q 142 885 89 843 q 270 950 194 928 q 438 972 346 972 l 742 972 l 742 0 l 471 0 l 471 306 z "},"ß":{"ha":882,"x_min":71,"x_max":844,"o":"m 426 185 q 542 218 501 189 q 583 297 583 247 l 583 300 q 540 378 583 350 q 426 413 497 406 l 426 553 q 506 613 472 576 q 540 701 540 649 l 540 704 q 513 778 540 751 q 444 806 486 806 q 365 772 396 806 q 333 671 333 738 l 333 0 l 71 0 l 71 665 q 95 813 71 746 q 167 927 119 879 q 286 1001 215 975 q 449 1026 357 1026 q 594 1003 529 1026 q 703 942 658 981 q 772 849 749 903 q 796 736 796 796 l 796 733 q 753 592 796 647 q 651 506 711 536 q 721 475 686 494 q 783 426 756 456 q 827 358 810 397 q 844 269 844 319 l 844 267 q 813 144 844 197 q 726 57 782 92 q 594 6 671 22 q 426 -4 518 -10 l 426 185 z "},"®":{"ha":1153,"x_min":74,"x_max":1079,"o":"m 601 511 q 661 528 640 511 q 682 574 682 544 l 682 576 q 660 624 682 608 q 600 640 638 640 l 504 640 l 504 511 l 601 511 m 356 768 l 604 768 q 713 752 668 768 q 785 708 757 736 q 831 586 831 663 l 831 583 q 801 481 831 521 q 721 419 771 440 l 849 233 l 678 233 l 569 396 l 567 396 l 504 396 l 504 233 l 356 233 l 356 768 m 575 36 q 752 72 671 36 q 893 169 833 107 q 987 313 953 231 q 1021 486 1021 394 l 1021 489 q 987 663 1021 581 q 894 805 953 744 q 753 901 835 865 q 578 936 672 936 q 401 901 482 936 q 260 803 319 865 q 166 660 200 742 q 132 486 132 578 l 132 483 q 165 310 132 392 q 258 167 199 228 q 399 72 318 107 q 575 36 481 36 m 575 -19 q 378 21 469 -19 q 219 130 286 61 q 113 290 151 199 q 74 483 74 381 l 74 486 q 113 681 74 589 q 219 842 151 772 q 380 951 288 911 q 578 992 472 992 q 775 951 683 992 q 934 842 867 911 q 1040 683 1001 774 q 1079 489 1079 592 l 1079 486 q 1040 292 1079 383 q 933 131 1001 200 q 773 21 865 61 q 575 -19 681 -19 z "},"©":{"ha":1153,"x_min":74,"x_max":1079,"o":"m 583 217 q 471 238 522 217 q 383 295 419 258 q 325 382 346 332 q 304 490 304 432 l 304 493 q 325 600 304 550 q 383 688 346 650 q 473 747 421 725 q 588 769 525 769 q 724 739 671 769 q 813 660 776 708 l 700 571 q 649 616 676 599 q 583 633 622 633 q 493 593 528 633 q 458 494 458 553 l 458 492 q 493 393 458 433 q 583 353 528 353 q 652 371 625 353 q 703 417 679 389 l 817 336 q 724 250 778 283 q 583 217 669 217 m 575 36 q 752 72 671 36 q 893 169 833 107 q 987 313 953 231 q 1021 486 1021 394 l 1021 489 q 987 663 1021 581 q 894 805 953 744 q 753 901 835 865 q 578 936 672 936 q 401 901 482 936 q 260 803 319 865 q 166 660 200 742 q 132 486 132 578 l 132 483 q 165 310 132 392 q 258 167 199 228 q 399 72 318 107 q 575 36 481 36 m 575 -19 q 378 21 469 -19 q 219 130 286 61 q 113 290 151 199 q 74 483 74 381 l 74 486 q 113 681 74 589 q 219 842 151 772 q 380 951 288 911 q 578 992 472 992 q 775 951 683 992 q 934 842 867 911 q 1040 683 1001 774 q 1079 489 1079 592 l 1079 486 q 1040 292 1079 383 q 933 131 1001 200 q 773 21 865 61 q 575 -19 681 -19 z "},"™":{"ha":965,"x_min":22,"x_max":919,"o":"m 150 868 l 22 868 l 22 972 l 397 972 l 397 868 l 269 868 l 269 544 l 150 544 l 150 868 m 464 972 l 590 972 l 692 807 l 794 972 l 919 972 l 919 544 l 801 544 l 801 794 l 693 625 l 689 625 l 581 794 l 581 544 l 464 544 l 464 972 z "},"´":{"ha":694,"x_min":182,"x_max":572,"o":"m 326 1072 l 572 993 l 368 815 l 182 815 l 326 1072 z "},"¨":{"ha":694,"x_min":81,"x_max":614,"o":"m 81 1014 l 310 1014 l 310 815 l 81 815 l 81 1014 m 385 1014 l 614 1014 l 614 815 l 385 815 l 385 1014 z "},"Æ":{"ha":1476,"x_min":-7,"x_max":1424,"o":"m 669 383 l 669 751 l 653 751 l 464 383 l 669 383 m 507 972 l 1417 972 l 1417 743 l 932 743 l 932 596 l 1368 596 l 1368 383 l 932 383 l 932 229 l 1424 229 l 1424 0 l 669 0 l 669 174 l 356 174 l 265 0 l -7 0 l 507 972 z "},"Ø":{"ha":1154,"x_min":42,"x_max":1111,"o":"m 578 218 q 681 240 635 218 q 760 297 728 261 q 811 381 793 333 q 829 483 829 429 l 829 486 q 796 621 829 560 l 465 244 q 578 218 518 218 m 688 728 q 575 754 638 754 q 472 733 518 754 q 394 675 426 711 q 343 591 361 639 q 325 489 325 543 l 325 486 q 358 351 325 411 l 688 728 m 575 -19 q 429 -1 499 -19 q 300 54 360 18 l 246 -7 l 42 -7 l 181 149 q 86 301 119 215 q 53 483 53 386 l 53 486 q 92 683 53 590 q 203 844 132 775 q 369 952 274 913 q 578 992 465 992 q 725 973 656 992 q 853 918 794 954 l 907 979 l 1111 979 l 974 822 q 1067 671 1033 756 q 1100 489 1100 586 l 1100 486 q 1060 290 1100 382 q 950 128 1021 197 q 783 20 879 60 q 575 -19 688 -19 z "},"±":{"ha":858,"x_min":22,"x_max":821,"o":"m 440 -19 q 201 26 304 -19 q 22 153 97 72 l 190 318 q 299 237 243 265 q 426 208 356 208 q 523 235 489 208 q 557 301 557 261 l 557 304 q 519 367 557 344 q 401 389 482 389 l 300 389 l 300 592 l 399 592 q 504 616 472 592 q 536 676 536 640 l 536 679 q 503 740 536 717 q 414 764 471 764 q 308 734 356 764 q 219 658 261 704 l 53 814 q 123 884 85 851 q 208 941 161 917 q 310 978 254 965 q 438 992 367 992 q 585 972 518 992 q 698 918 651 953 q 770 835 744 883 q 796 732 796 788 l 796 729 q 756 588 796 642 q 650 504 715 535 q 772 427 724 479 q 821 286 821 375 l 821 283 q 795 163 821 218 q 720 67 769 107 q 600 3 671 26 q 440 -19 529 -19 z "},"¥":{"ha":983,"x_min":6,"x_max":978,"o":"m 358 129 l 103 129 l 103 296 l 358 296 l 358 365 l 103 365 l 103 532 l 294 532 l 6 972 l 311 972 l 494 653 l 678 972 l 978 972 l 688 532 l 881 532 l 881 365 l 625 365 l 625 296 l 881 296 l 881 129 l 625 129 l 625 0 l 358 0 l 358 129 z "},"µ":{"ha":1154,"x_min":53,"x_max":1204,"o":"m 578 224 q 679 244 633 224 q 757 301 725 265 q 807 383 789 336 q 825 483 825 431 l 825 486 q 807 586 825 539 q 756 669 789 633 q 676 727 722 706 q 575 749 631 749 q 474 728 519 749 q 397 672 429 707 q 347 589 364 636 q 329 489 329 542 l 329 486 q 347 386 329 433 q 398 303 365 339 q 476 245 431 267 q 578 224 522 224 m 719 0 q 649 -13 685 -8 q 575 -18 613 -18 q 367 21 463 -18 q 201 128 271 60 q 92 288 132 196 q 53 483 53 379 l 53 486 q 92 683 53 590 q 203 844 132 775 q 369 952 274 913 q 578 992 465 992 q 786 952 690 992 q 951 844 882 913 q 1060 685 1021 776 q 1100 489 1100 593 l 1100 486 q 1064 297 1100 386 q 961 142 1028 208 l 1204 -108 l 1204 -122 l 844 -122 l 719 0 z "},"π":{"ha":1153,"x_min":74,"x_max":1079,"o":"m 597 497 q 660 515 638 497 q 682 565 682 533 l 682 568 q 660 620 682 603 q 597 638 638 638 l 529 638 l 529 497 l 597 497 m 379 763 l 608 763 q 772 713 711 763 q 832 574 832 664 l 832 571 q 815 489 832 525 q 767 429 797 453 q 694 393 736 406 q 603 381 651 381 l 529 381 l 529 228 l 379 228 l 379 763 m 575 36 q 752 72 671 36 q 893 169 833 107 q 987 313 953 231 q 1021 486 1021 394 l 1021 489 q 987 663 1021 581 q 894 805 953 744 q 753 901 835 865 q 578 936 672 936 q 401 901 482 936 q 260 803 319 865 q 166 660 200 742 q 132 486 132 578 l 132 483 q 165 310 132 392 q 258 167 199 228 q 399 72 318 107 q 575 36 481 36 m 575 -19 q 378 21 469 -19 q 219 130 286 61 q 113 290 151 199 q 74 483 74 381 l 74 486 q 113 681 74 589 q 219 842 151 772 q 380 951 288 911 q 578 992 472 992 q 775 951 683 992 q 934 842 867 911 q 1040 683 1001 774 q 1079 489 1079 592 l 1079 486 q 1040 292 1079 383 q 933 131 1001 200 q 773 21 865 61 q 575 -19 681 -19 z "},"ª":{"ha":542,"x_min":57,"x_max":472,"o":"m 251 643 q 303 661 283 643 q 324 711 324 679 l 324 729 q 298 737 313 733 q 267 740 283 740 q 219 726 236 740 q 201 690 201 713 l 201 688 q 215 655 201 667 q 251 643 229 643 m 57 482 l 472 482 l 472 375 l 57 375 l 57 482 m 200 551 q 101 583 140 551 q 61 678 61 615 l 61 681 q 106 778 61 746 q 224 810 150 810 q 278 806 251 810 q 322 794 304 801 l 322 800 q 239 868 322 868 q 180 862 207 868 q 125 844 153 856 l 96 947 q 171 971 132 963 q 263 979 210 979 q 358 966 319 979 q 421 928 396 953 q 455 872 444 904 q 465 796 465 840 l 465 560 l 321 560 l 321 604 q 270 566 300 581 q 200 551 240 551 z "},"º":{"ha":542,"x_min":46,"x_max":496,"o":"m 272 672 q 332 698 310 672 q 354 761 354 724 l 354 764 q 331 830 354 803 q 269 857 307 857 q 210 831 232 857 q 188 767 188 804 l 188 764 q 211 699 188 725 q 272 672 235 672 m 71 482 l 471 482 l 471 375 l 71 375 l 71 482 m 269 549 q 180 565 221 549 q 109 610 139 582 q 63 678 79 639 q 46 761 46 717 l 46 764 q 63 848 46 808 q 110 917 79 888 q 182 963 140 946 q 272 979 224 979 q 362 963 321 979 q 433 917 403 946 q 479 850 463 889 q 496 767 496 811 l 496 764 q 478 680 496 719 q 431 611 461 640 q 360 565 401 582 q 269 549 318 549 z "},"Ω":{"ha":1122,"x_min":31,"x_max":1111,"o":"m 118 540 l 31 540 l 31 747 l 118 747 l 118 764 q 182 958 118 894 q 264 1008 217 993 q 378 1024 311 1024 q 478 1018 439 1024 q 550 1003 518 1013 l 550 817 q 503 828 526 824 q 451 832 479 832 q 376 761 376 832 l 376 743 l 549 743 l 549 540 l 381 540 l 381 0 l 118 0 l 118 540 m 679 540 l 590 540 l 590 743 l 679 743 l 679 764 q 743 958 679 894 q 824 1008 776 993 q 939 1024 872 1024 q 1040 1018 1000 1024 q 1111 1003 1079 1013 l 1111 817 q 1064 828 1088 824 q 1013 832 1040 832 q 938 761 938 832 l 938 743 l 1110 743 l 1110 540 l 942 540 l 942 0 l 679 0 l 679 540 z "},"æ":{"ha":1306,"x_min":33,"x_max":1264,"o":"m 385 151 q 536 213 460 151 q 519 258 526 235 q 510 307 513 282 q 463 321 490 315 q 408 326 436 326 q 319 301 350 326 q 288 233 288 275 l 288 231 q 315 172 288 193 q 385 151 343 151 m 1017 438 q 974 537 1010 500 q 885 574 939 574 q 799 537 832 574 q 756 438 765 500 l 1017 438 m 313 -17 q 203 -2 254 -17 q 115 42 153 13 q 56 114 78 71 q 33 215 33 157 l 33 218 q 55 321 33 276 q 115 394 76 365 q 207 439 153 424 q 328 454 261 454 q 428 445 381 454 q 508 425 476 436 l 508 438 q 472 528 508 496 q 358 560 435 560 q 250 549 299 560 q 151 518 201 538 l 97 704 q 233 747 161 731 q 401 763 304 763 q 554 740 493 763 q 656 678 615 718 q 759 744 700 721 q 890 768 818 768 q 1055 735 985 768 q 1172 645 1125 701 q 1241 515 1218 589 q 1264 357 1264 440 q 1263 331 1264 344 q 1261 303 1263 317 l 758 303 q 817 210 775 240 q 921 179 860 179 q 1008 197 969 179 q 1088 256 1047 215 l 1233 135 q 1100 24 1179 65 q 908 -18 1021 -18 q 742 12 817 -18 q 614 94 667 42 q 472 14 547 44 q 313 -17 396 -17 z "},"ø":{"ha":911,"x_min":19,"x_max":892,"o":"m 457 194 q 526 209 494 194 q 579 248 557 224 q 613 304 601 272 q 625 372 625 336 l 625 375 q 622 413 625 394 q 611 447 618 431 l 396 206 q 457 194 425 194 m 517 543 q 454 556 489 556 q 385 541 417 556 q 332 502 354 526 q 298 446 310 478 q 286 378 286 414 l 286 375 q 290 338 286 356 q 300 303 293 319 l 517 543 m 454 -18 q 342 -4 394 -18 q 243 35 289 10 l 204 -7 l 19 -7 l 135 121 q 65 236 90 172 q 40 372 40 300 l 40 375 q 72 527 40 456 q 158 652 103 599 q 290 737 214 706 q 457 768 367 768 q 569 754 515 768 q 667 715 622 740 l 707 758 l 892 758 q 844 707 867 732 q 806 664 825 686 q 776 631 788 642 q 846 515 821 579 q 871 378 871 451 l 871 375 q 840 223 871 294 q 753 98 808 151 q 621 13 697 44 q 454 -18 544 -18 z "},"¿":{"ha":750,"x_min":31,"x_max":738,"o":"m 376 -15 q 237 5 300 -15 q 128 63 174 25 q 56 154 82 100 q 31 276 31 208 l 31 279 q 51 392 31 344 q 108 474 71 440 q 194 531 144 508 q 301 567 243 553 l 317 656 l 485 656 l 521 424 l 508 411 q 339 372 388 400 q 290 300 290 344 l 290 299 q 318 242 290 263 q 396 222 346 222 q 497 246 444 222 q 597 314 549 269 l 738 131 q 585 26 674 67 q 376 -15 497 -15 m 268 972 l 543 972 l 543 736 l 268 736 l 268 972 z "},"¡":{"ha":450,"x_min":75,"x_max":375,"o":"m 75 118 l 156 656 l 294 656 l 375 118 l 375 0 l 75 0 l 75 118 m 88 972 l 363 972 l 363 736 l 88 736 l 88 972 z "},"√":{"ha":1539,"x_min":31,"x_max":1463,"o":"m 1199 1014 l 1463 1014 l 1463 0 l 1199 0 l 1199 1014 m 118 540 l 31 540 l 31 747 l 118 747 l 118 764 q 182 958 118 894 q 264 1008 217 993 q 378 1024 311 1024 q 478 1018 439 1024 q 550 1003 518 1013 l 550 817 q 503 828 526 824 q 451 832 479 832 q 376 761 376 832 l 376 743 l 549 743 l 549 540 l 381 540 l 381 0 l 118 0 l 118 540 m 679 540 l 590 540 l 590 743 l 679 743 l 679 764 q 743 958 679 894 q 824 1008 776 993 q 939 1024 872 1024 q 1040 1018 1000 1024 q 1111 1003 1079 1013 l 1111 817 q 1064 828 1088 824 q 1013 832 1040 832 q 938 761 938 832 l 938 743 l 1110 743 l 1110 540 l 942 540 l 942 0 l 679 0 l 679 540 z "},"ƒ":{"ha":768,"x_min":35,"x_max":736,"o":"m 154 -14 q 94 -10 122 -14 q 35 0 67 -7 l 35 192 q 100 183 74 183 q 165 203 144 183 q 196 274 186 224 l 228 457 l 143 457 l 143 657 l 263 657 l 281 747 q 376 928 303 869 q 583 986 449 986 q 667 981 628 986 q 736 968 707 976 l 736 774 q 643 786 686 786 q 569 766 594 786 q 535 699 543 746 l 528 657 l 686 657 l 686 457 l 492 457 l 453 239 q 418 122 440 169 q 360 43 396 74 q 273 -1 324 13 q 154 -14 222 -14 z "},"≈":{"ha":1539,"x_min":31,"x_max":1468,"o":"m 1199 751 l 1463 751 l 1463 0 l 1199 0 l 1199 751 m 118 540 l 31 540 l 31 747 l 118 747 l 118 764 q 182 958 118 894 q 264 1008 217 993 q 378 1024 311 1024 q 478 1018 439 1024 q 550 1003 518 1013 l 550 817 q 503 828 526 824 q 451 832 479 832 q 376 761 376 832 l 376 743 l 549 743 l 549 540 l 381 540 l 381 0 l 118 0 l 118 540 m 679 540 l 590 540 l 590 743 l 679 743 l 679 764 q 743 958 679 894 q 824 1008 776 993 q 939 1024 872 1024 q 1040 1018 1000 1024 q 1111 1003 1079 1013 l 1111 817 q 1064 828 1088 824 q 1013 832 1040 832 q 938 761 938 832 l 938 743 l 1110 743 l 1110 540 l 942 540 l 942 0 l 679 0 l 679 540 m 1193 1014 l 1468 1014 l 1468 819 l 1193 819 l 1193 1014 z "},"«":{"ha":876,"x_min":42,"x_max":835,"o":"m 42 339 l 42 406 l 264 703 l 454 610 l 274 372 l 454 136 l 264 42 l 42 339 m 401 367 l 401 378 l 646 703 l 835 610 l 654 372 l 835 136 l 646 42 l 401 367 z "},"»":{"ha":876,"x_min":42,"x_max":835,"o":"m 42 135 l 222 372 l 42 608 l 232 703 l 475 378 l 475 367 l 232 42 l 42 135 m 424 135 l 604 372 l 424 608 l 613 703 l 835 406 l 835 339 l 613 42 l 424 135 z "},"…":{"ha":1167,"x_min":60,"x_max":1107,"o":"m 60 267 l 329 267 l 329 0 l 60 0 l 60 267 m 449 267 l 718 267 l 718 0 l 449 0 l 449 267 m 838 267 l 1107 267 l 1107 0 l 838 0 l 838 267 z "}," ":{"ha":385,"x_min":0,"x_max":0,"o":""},"À":{"ha":1104,"x_min":8,"x_max":1096,"o":"m 272 1215 l 518 1294 l 663 1038 l 476 1038 l 272 1215 m 658 383 l 550 660 l 440 383 l 658 383 m 422 979 l 682 979 l 1096 0 l 807 0 l 736 174 l 361 174 l 292 0 l 8 0 l 422 979 z "},"Ã":{"ha":1104,"x_min":8,"x_max":1096,"o":"m 260 1063 q 321 1218 282 1167 q 432 1269 360 1269 q 494 1261 463 1269 q 555 1242 526 1253 q 608 1224 583 1232 q 649 1215 632 1215 q 692 1231 678 1215 q 719 1279 706 1247 l 846 1244 q 785 1089 824 1140 q 674 1038 746 1038 q 610 1046 642 1038 q 551 1065 579 1054 q 498 1083 522 1075 q 457 1092 474 1092 q 414 1076 428 1092 q 386 1028 400 1060 l 260 1063 m 658 383 l 550 660 l 440 383 l 658 383 m 422 979 l 682 979 l 1096 0 l 807 0 l 736 174 l 361 174 l 292 0 l 8 0 l 422 979 z "},"Õ":{"ha":1154,"x_min":53,"x_max":1100,"o":"m 285 1063 q 346 1218 307 1167 q 457 1269 385 1269 q 519 1261 488 1269 q 580 1242 551 1253 q 633 1224 608 1232 q 674 1215 657 1215 q 717 1231 703 1215 q 744 1279 731 1247 l 871 1244 q 810 1089 849 1140 q 699 1038 771 1038 q 635 1046 667 1038 q 576 1065 604 1054 q 523 1083 547 1075 q 482 1092 499 1092 q 439 1076 453 1092 q 411 1028 425 1060 l 285 1063 m 578 224 q 679 244 633 224 q 757 301 725 265 q 807 383 789 336 q 825 483 825 431 l 825 486 q 807 586 825 539 q 756 669 789 633 q 676 727 722 706 q 575 749 631 749 q 474 728 519 749 q 397 672 429 707 q 347 589 364 636 q 329 489 329 542 l 329 486 q 347 386 329 433 q 398 303 365 339 q 476 245 431 267 q 578 224 522 224 m 575 -19 q 367 20 463 -19 q 201 128 271 60 q 92 288 132 196 q 53 483 53 379 l 53 486 q 92 683 53 590 q 203 844 132 775 q 369 952 274 913 q 578 992 465 992 q 786 952 690 992 q 951 844 882 913 q 1060 685 1021 776 q 1100 489 1100 593 l 1100 486 q 1060 290 1100 382 q 950 128 1021 197 q 783 20 879 60 q 575 -19 688 -19 z "},"Œ":{"ha":1497,"x_min":53,"x_max":1444,"o":"m 686 235 l 686 738 l 594 738 q 486 721 535 738 q 403 672 438 704 q 349 592 368 639 q 329 488 329 546 l 329 485 q 402 301 329 368 q 594 235 475 235 l 686 235 m 601 0 q 370 35 472 0 q 197 135 268 71 q 90 287 126 199 q 53 481 53 375 l 53 483 q 90 678 53 589 q 199 833 128 768 q 372 935 269 899 q 607 972 475 972 l 1438 972 l 1438 743 l 953 743 l 953 596 l 1389 596 l 1389 383 l 953 383 l 953 229 l 1444 229 l 1444 0 l 601 0 z "},"œ":{"ha":1407,"x_min":40,"x_max":1365,"o":"m 453 206 q 517 219 488 206 q 565 255 546 232 q 596 308 585 278 q 607 372 607 339 l 607 375 q 595 440 607 410 q 563 494 583 471 q 513 531 542 517 q 450 544 485 544 q 387 531 415 544 q 339 494 358 517 q 308 441 319 471 q 297 378 297 411 l 297 375 q 309 310 297 340 q 342 256 321 279 q 391 219 363 233 q 453 206 419 206 m 1118 438 q 1076 537 1111 500 q 988 574 1042 574 q 901 537 935 574 q 857 438 868 500 l 1118 438 m 444 -18 q 285 13 358 -18 q 157 97 211 43 q 72 221 103 150 q 40 372 40 292 l 40 375 q 72 527 40 456 q 158 652 103 599 q 288 737 214 706 q 450 768 363 768 q 607 738 536 768 q 728 656 678 708 q 843 738 776 708 q 990 768 910 768 q 1156 735 1086 768 q 1273 645 1226 701 q 1342 515 1319 589 q 1365 357 1365 440 q 1365 331 1365 344 q 1363 303 1364 317 l 861 303 q 919 210 876 240 q 1022 179 961 179 q 1110 197 1071 179 q 1190 256 1150 215 l 1336 135 q 1202 24 1281 65 q 1014 -18 1124 -18 q 849 12 922 -18 q 725 94 776 42 q 602 12 674 42 q 444 -18 531 -18 z "},"–":{"ha":733,"x_min":56,"x_max":678,"o":"m 56 547 l 678 547 l 678 321 l 56 321 l 56 547 z "},"—":{"ha":1247,"x_min":56,"x_max":1192,"o":"m 56 547 l 1192 547 l 1192 321 l 56 321 l 56 547 z "},"“":{"ha":760,"x_min":56,"x_max":728,"o":"m 56 697 q 75 825 56 772 q 131 911 94 878 q 220 960 168 944 q 338 979 272 976 l 358 878 q 224 747 217 861 l 326 747 l 326 476 l 56 476 l 56 697 m 424 697 q 444 825 424 772 q 500 911 464 878 q 588 960 536 944 q 706 979 640 976 l 728 878 q 592 747 588 861 l 694 747 l 694 476 l 424 476 l 424 697 z "},"”":{"ha":760,"x_min":32,"x_max":704,"o":"m 32 571 q 168 701 172 586 l 65 701 l 65 972 l 336 972 l 336 751 q 317 622 336 675 q 260 536 297 569 q 172 487 224 503 q 54 469 119 471 l 32 571 m 401 571 q 538 701 542 586 l 433 701 l 433 972 l 704 972 l 704 751 q 685 622 704 675 q 628 536 665 569 q 540 487 592 503 q 424 469 488 471 l 401 571 z "},"‘":{"ha":394,"x_min":56,"x_max":363,"o":"m 56 697 q 76 827 56 774 q 133 913 96 881 q 222 961 169 946 q 340 979 275 976 l 363 878 q 256 837 292 869 q 224 747 221 804 l 329 747 l 329 476 l 56 476 l 56 697 z "},"’":{"ha":394,"x_min":32,"x_max":339,"o":"m 32 571 q 138 611 103 578 q 171 701 174 644 l 65 701 l 65 972 l 339 972 l 339 751 q 319 621 339 674 q 262 535 299 568 q 172 487 225 503 q 54 469 119 471 l 32 571 z "},"ÿ":{"ha":869,"x_min":15,"x_max":854,"o":"m 167 1014 l 396 1014 l 396 815 l 167 815 l 167 1014 m 471 1014 l 700 1014 l 700 815 l 471 815 l 471 1014 m 293 -226 q 163 -208 222 -226 q 51 -161 104 -190 l 133 24 q 196 -6 165 4 q 249 -17 226 -17 q 283 -10 268 -17 q 310 14 297 -4 l 15 751 l 292 751 l 442 299 l 583 751 l 854 751 l 579 18 q 528 -94 554 -47 q 468 -169 501 -140 q 392 -212 435 -199 q 293 -226 349 -226 z "},"Ÿ":{"ha":1004,"x_min":-3,"x_max":1007,"o":"m 236 1236 l 465 1236 l 465 1038 l 236 1038 l 236 1236 m 540 1236 l 769 1236 l 769 1038 l 540 1038 l 540 1236 m 367 364 l -3 972 l 304 972 l 504 618 l 706 972 l 1007 972 l 638 368 l 638 0 l 367 0 l 367 364 z "},"⁄":{"ha":696,"x_min":-101,"x_max":765,"o":"m 546 1053 l 765 1053 l 119 -136 l -101 -136 l 546 1053 z "},"¤":{"ha":947,"x_min":51,"x_max":924,"o":"m 585 -19 q 431 5 500 -19 q 308 72 361 29 q 218 176 254 115 q 164 310 182 236 l 51 310 l 51 454 l 146 454 q 144 469 144 461 q 144 483 144 476 l 144 486 q 144 505 144 496 q 146 524 144 514 l 51 524 l 51 668 l 168 668 q 222 795 186 736 q 312 898 258 854 q 434 967 365 942 q 586 992 503 992 q 782 949 700 992 q 919 835 864 906 l 749 675 q 680 738 718 714 q 588 761 642 761 q 497 735 535 761 q 436 664 458 710 l 653 664 l 653 524 l 406 524 q 404 506 404 515 q 404 489 404 497 l 404 486 q 404 470 404 478 q 406 454 404 463 l 653 454 l 653 314 l 433 314 q 496 238 457 265 q 593 211 535 211 q 684 236 646 211 q 757 303 722 261 l 924 146 q 782 24 864 68 q 585 -19 700 -19 z "},"‹":{"ha":496,"x_min":42,"x_max":454,"o":"m 42 339 l 42 406 l 264 703 l 454 610 l 274 372 l 454 136 l 264 42 l 42 339 z "},"›":{"ha":496,"x_min":42,"x_max":454,"o":"m 42 135 l 222 372 l 42 608 l 232 703 l 454 406 l 454 339 l 232 42 l 42 135 z "},"ﬁ":{"ha":978,"x_min":31,"x_max":907,"o":"m 638 751 l 901 751 l 901 0 l 638 0 l 638 751 m 118 764 q 182 958 118 894 q 264 1008 217 993 q 378 1024 311 1024 q 478 1018 439 1024 q 550 1003 518 1013 l 550 817 q 503 828 526 824 q 451 832 479 832 q 376 761 376 832 l 376 743 l 549 743 l 549 540 l 381 540 l 381 0 l 118 0 l 118 540 l 31 540 l 31 747 l 118 747 l 118 764 m 632 1014 l 907 1014 l 907 819 l 632 819 l 632 1014 z "},"ﬂ":{"ha":978,"x_min":31,"x_max":901,"o":"m 638 1014 l 901 1014 l 901 0 l 638 0 l 638 1014 m 118 540 l 31 540 l 31 747 l 118 747 l 118 764 q 182 958 118 894 q 264 1008 217 993 q 378 1024 311 1024 q 478 1018 439 1024 q 550 1003 518 1013 l 550 817 q 503 828 526 824 q 451 832 479 832 q 376 761 376 832 l 376 743 l 549 743 l 549 540 l 381 540 l 381 0 l 118 0 l 118 540 z "},"‡":{"ha":597,"x_min":69,"x_max":528,"o":"m 242 179 l 69 161 l 69 306 l 244 288 l 226 486 l 244 685 l 69 667 l 69 811 l 242 793 l 221 972 l 376 972 l 356 793 l 528 811 l 528 667 l 353 685 l 371 486 l 353 288 l 528 306 l 528 161 l 356 179 l 376 0 l 221 0 l 242 179 z "},"·":{"ha":394,"x_min":60,"x_max":335,"o":"m 60 569 l 335 569 l 335 299 l 60 299 l 60 569 z "},"‚":{"ha":394,"x_min":28,"x_max":335,"o":"m 28 -131 q 167 0 171 -114 l 60 0 l 60 271 l 335 271 l 335 50 q 315 -81 335 -28 q 257 -166 294 -133 q 167 -215 219 -199 q 49 -232 114 -231 l 28 -131 z "},"„":{"ha":758,"x_min":28,"x_max":700,"o":"m 28 -131 q 163 0 169 -114 l 60 0 l 60 271 l 331 271 l 331 50 q 311 -79 331 -26 q 255 -165 292 -132 q 166 -215 218 -199 q 49 -232 114 -231 l 28 -131 m 397 -131 q 532 0 539 -114 l 429 0 l 429 271 l 700 271 l 700 50 q 681 -79 700 -26 q 624 -165 661 -132 q 535 -215 588 -199 q 418 -232 483 -231 l 397 -131 z "},"‰":{"ha":1799,"x_min":49,"x_max":1750,"o":"m 950 139 q 1008 169 986 139 q 1031 246 1031 200 l 1031 249 q 1008 326 1031 296 q 949 357 985 357 q 890 327 911 357 q 868 250 868 297 l 868 247 q 892 170 868 201 q 950 139 915 139 m 1500 139 q 1558 169 1536 139 q 1581 246 1581 200 l 1581 249 q 1558 326 1581 296 q 1499 357 1535 357 q 1440 327 1461 357 q 1418 250 1418 297 l 1418 247 q 1442 170 1418 201 q 1500 139 1465 139 m 300 615 q 358 646 336 615 q 381 722 381 676 l 381 725 q 358 802 381 771 q 299 833 335 833 q 240 803 263 833 q 218 726 218 772 l 218 724 q 242 646 218 676 q 300 615 265 615 m 949 -14 q 846 7 892 -14 q 767 63 800 28 q 717 146 735 99 q 699 246 699 193 l 699 249 q 717 350 699 303 q 767 433 735 397 q 847 489 800 468 q 950 510 893 510 q 1053 490 1007 510 q 1131 434 1099 469 q 1182 351 1164 399 q 1200 250 1200 304 l 1200 247 q 1182 147 1200 194 q 1131 63 1164 99 q 1051 7 1097 28 q 949 -14 1004 -14 m 1499 -14 q 1396 7 1442 -14 q 1317 63 1350 28 q 1267 146 1285 99 q 1249 246 1249 193 l 1249 249 q 1267 350 1249 303 q 1317 433 1285 397 q 1397 489 1350 468 q 1500 510 1443 510 q 1603 490 1557 510 q 1681 434 1649 469 q 1732 351 1714 399 q 1750 250 1750 304 l 1750 247 q 1732 147 1750 194 q 1681 63 1714 99 q 1601 7 1647 28 q 1499 -14 1554 -14 m 906 972 l 1093 972 l 343 0 l 156 0 l 906 972 m 299 463 q 196 483 242 463 q 117 538 150 503 q 67 621 85 574 q 49 722 49 668 l 49 725 q 67 826 49 779 q 117 909 85 874 q 197 965 150 944 q 300 986 243 986 q 403 965 357 986 q 481 909 449 944 q 532 826 514 874 q 550 726 550 779 l 550 724 q 532 622 550 669 q 481 540 514 575 q 401 483 447 504 q 299 463 354 463 z "},"Â":{"ha":1104,"x_min":8,"x_max":1096,"o":"m 446 1267 l 660 1267 l 838 1038 l 668 1038 l 551 1122 l 435 1038 l 268 1038 l 446 1267 m 658 383 l 550 660 l 440 383 l 658 383 m 422 979 l 682 979 l 1096 0 l 807 0 l 736 174 l 361 174 l 292 0 l 8 0 l 422 979 z "},"Ê":{"ha":926,"x_min":86,"x_max":875,"o":"m 372 1267 l 586 1267 l 764 1038 l 594 1038 l 478 1122 l 361 1038 l 194 1038 l 372 1267 m 86 972 l 868 972 l 868 743 l 353 743 l 353 596 l 819 596 l 819 383 l 353 383 l 353 229 l 875 229 l 875 0 l 86 0 l 86 972 z "},"Á":{"ha":1104,"x_min":8,"x_max":1096,"o":"m 588 1294 l 833 1215 l 629 1038 l 443 1038 l 588 1294 m 658 383 l 550 660 l 440 383 l 658 383 m 422 979 l 682 979 l 1096 0 l 807 0 l 736 174 l 361 174 l 292 0 l 8 0 l 422 979 z "},"Ë":{"ha":926,"x_min":86,"x_max":875,"o":"m 213 1236 l 442 1236 l 442 1038 l 213 1038 l 213 1236 m 517 1236 l 746 1236 l 746 1038 l 517 1038 l 517 1236 m 86 972 l 868 972 l 868 743 l 353 743 l 353 596 l 819 596 l 819 383 l 353 383 l 353 229 l 875 229 l 875 0 l 86 0 l 86 972 z "},"È":{"ha":926,"x_min":86,"x_max":875,"o":"m 231 1215 l 476 1294 l 621 1038 l 435 1038 l 231 1215 m 86 972 l 868 972 l 868 743 l 353 743 l 353 596 l 819 596 l 819 383 l 353 383 l 353 229 l 875 229 l 875 0 l 86 0 l 86 972 z "},"Í":{"ha":454,"x_min":92,"x_max":511,"o":"m 265 1294 l 511 1215 l 307 1038 l 121 1038 l 265 1294 m 92 972 l 363 972 l 363 0 l 92 0 l 92 972 z "},"Î":{"ha":454,"x_min":-58,"x_max":513,"o":"m 121 1267 l 335 1267 l 513 1038 l 343 1038 l 226 1122 l 110 1038 l -58 1038 l 121 1267 m 92 972 l 363 972 l 363 0 l 92 0 l 92 972 z "},"Ï":{"ha":454,"x_min":-40,"x_max":494,"o":"m -40 1236 l 190 1236 l 190 1038 l -40 1038 l -40 1236 m 265 1236 l 494 1236 l 494 1038 l 265 1038 l 265 1236 m 92 972 l 363 972 l 363 0 l 92 0 l 92 972 z "},"Ì":{"ha":454,"x_min":-57,"x_max":363,"o":"m -57 1215 l 189 1294 l 333 1038 l 147 1038 l -57 1215 m 92 972 l 363 972 l 363 0 l 92 0 l 92 972 z "},"Ó":{"ha":1154,"x_min":53,"x_max":1100,"o":"m 626 1294 l 872 1215 l 668 1038 l 482 1038 l 626 1294 m 578 224 q 679 244 633 224 q 757 301 725 265 q 807 383 789 336 q 825 483 825 431 l 825 486 q 807 586 825 539 q 756 669 789 633 q 676 727 722 706 q 575 749 631 749 q 474 728 519 749 q 397 672 429 707 q 347 589 364 636 q 329 489 329 542 l 329 486 q 347 386 329 433 q 398 303 365 339 q 476 245 431 267 q 578 224 522 224 m 575 -19 q 367 20 463 -19 q 201 128 271 60 q 92 288 132 196 q 53 483 53 379 l 53 486 q 92 683 53 590 q 203 844 132 775 q 369 952 274 913 q 578 992 465 992 q 786 952 690 992 q 951 844 882 913 q 1060 685 1021 776 q 1100 489 1100 593 l 1100 486 q 1060 290 1100 382 q 950 128 1021 197 q 783 20 879 60 q 575 -19 688 -19 z "},"Ô":{"ha":1154,"x_min":53,"x_max":1100,"o":"m 471 1264 l 685 1264 l 863 1035 l 693 1035 l 576 1119 l 460 1035 l 293 1035 l 471 1264 m 578 224 q 679 244 633 224 q 757 301 725 265 q 807 383 789 336 q 825 483 825 431 l 825 486 q 807 586 825 539 q 756 669 789 633 q 676 727 722 706 q 575 749 631 749 q 474 728 519 749 q 397 672 429 707 q 347 589 364 636 q 329 489 329 542 l 329 486 q 347 386 329 433 q 398 303 365 339 q 476 245 431 267 q 578 224 522 224 m 575 -19 q 367 20 463 -19 q 201 128 271 60 q 92 288 132 196 q 53 483 53 379 l 53 486 q 92 683 53 590 q 203 844 132 775 q 369 952 274 913 q 578 992 465 992 q 786 952 690 992 q 951 844 882 913 q 1060 685 1021 776 q 1100 489 1100 593 l 1100 486 q 1060 290 1100 382 q 950 128 1021 197 q 783 20 879 60 q 575 -19 688 -19 z "},"Ò":{"ha":1154,"x_min":53,"x_max":1100,"o":"m 283 1215 l 529 1294 l 674 1038 l 488 1038 l 283 1215 m 578 224 q 679 244 633 224 q 757 301 725 265 q 807 383 789 336 q 825 483 825 431 l 825 486 q 807 586 825 539 q 756 669 789 633 q 676 727 722 706 q 575 749 631 749 q 474 728 519 749 q 397 672 429 707 q 347 589 364 636 q 329 489 329 542 l 329 486 q 347 386 329 433 q 398 303 365 339 q 476 245 431 267 q 578 224 522 224 m 575 -19 q 367 20 463 -19 q 201 128 271 60 q 92 288 132 196 q 53 483 53 379 l 53 486 q 92 683 53 590 q 203 844 132 775 q 369 952 274 913 q 578 992 465 992 q 786 952 690 992 q 951 844 882 913 q 1060 685 1021 776 q 1100 489 1100 593 l 1100 486 q 1060 290 1100 382 q 950 128 1021 197 q 783 20 879 60 q 575 -19 688 -19 z "},"Ú":{"ha":1053,"x_min":74,"x_max":979,"o":"m 563 1288 l 808 1208 l 604 1031 l 418 1031 l 563 1288 m 524 -18 q 336 8 419 -18 q 194 90 253 35 q 105 228 136 144 q 74 426 74 313 l 74 972 l 347 972 l 347 432 q 396 276 347 326 q 526 225 444 225 q 657 274 608 225 q 706 425 706 322 l 706 972 l 979 972 l 979 433 q 947 230 979 315 q 855 90 914 144 q 712 8 796 35 q 524 -18 628 -18 z "},"Û":{"ha":1053,"x_min":74,"x_max":979,"o":"m 419 1267 l 633 1267 l 811 1038 l 642 1038 l 525 1122 l 408 1038 l 242 1038 l 419 1267 m 524 -18 q 336 8 419 -18 q 194 90 253 35 q 105 228 136 144 q 74 426 74 313 l 74 972 l 347 972 l 347 432 q 396 276 347 326 q 526 225 444 225 q 657 274 608 225 q 706 425 706 322 l 706 972 l 979 972 l 979 433 q 947 230 979 315 q 855 90 914 144 q 712 8 796 35 q 524 -18 628 -18 z "},"Ù":{"ha":1053,"x_min":74,"x_max":979,"o":"m 244 1208 l 490 1288 l 635 1031 l 449 1031 l 244 1208 m 524 -18 q 336 8 419 -18 q 194 90 253 35 q 105 228 136 144 q 74 426 74 313 l 74 972 l 347 972 l 347 432 q 396 276 347 326 q 526 225 444 225 q 657 274 608 225 q 706 425 706 322 l 706 972 l 979 972 l 979 433 q 947 230 979 315 q 855 90 914 144 q 712 8 796 35 q 524 -18 628 -18 z "},"ı":{"ha":417,"x_min":76,"x_max":340,"o":"m 76 751 l 340 751 l 340 0 l 76 0 l 76 751 z "},"ˆ":{"ha":694,"x_min":63,"x_max":632,"o":"m 240 1044 l 454 1044 l 632 815 l 463 815 l 346 900 l 229 815 l 63 815 l 240 1044 z "},"˜":{"ha":694,"x_min":54,"x_max":640,"o":"m 54 840 q 115 996 76 944 q 226 1047 154 1047 q 289 1039 257 1047 q 349 1020 321 1031 q 402 1001 378 1010 q 443 993 426 993 q 486 1009 472 993 q 514 1057 500 1025 l 640 1022 q 579 867 618 918 q 468 815 540 815 q 405 824 436 815 q 345 842 374 832 q 292 861 317 853 q 251 869 268 869 q 208 853 222 869 q 181 806 194 838 l 54 840 z "},"¯":{"ha":694,"x_min":86,"x_max":608,"o":"m 86 983 l 608 983 l 608 822 l 86 822 l 86 983 z "},"˘":{"ha":694,"x_min":74,"x_max":621,"o":"m 347 813 q 157 873 231 813 q 74 1044 83 933 l 228 1044 q 267 986 240 1008 q 347 964 294 964 q 427 986 400 964 q 467 1044 454 1008 l 621 1044 q 538 873 611 933 q 347 813 464 813 z "},"˙":{"ha":694,"x_min":229,"x_max":465,"o":"m 229 1014 l 465 1014 l 465 815 l 229 815 l 229 1014 z "},"˚":{"ha":694,"x_min":163,"x_max":532,"o":"m 347 906 q 413 933 386 906 q 440 997 440 960 l 440 1000 q 413 1063 440 1036 q 347 1090 386 1090 q 281 1063 308 1090 q 254 1000 254 1036 l 254 997 q 281 933 254 960 q 347 906 308 906 m 347 821 q 278 835 311 821 q 219 874 244 850 q 178 929 193 897 q 163 997 163 961 l 163 1000 q 178 1068 163 1036 q 219 1124 193 1100 q 278 1161 244 1147 q 347 1175 311 1175 q 417 1161 383 1175 q 476 1124 450 1147 q 517 1068 501 1100 q 532 1000 532 1036 l 532 997 q 517 929 532 961 q 476 874 501 897 q 417 835 450 850 q 347 821 383 821 z "},"¸":{"ha":694,"x_min":151,"x_max":453,"o":"m 151 -151 l 279 21 l 453 21 l 361 -240 l 151 -151 z "},"˝":{"ha":694,"x_min":42,"x_max":668,"o":"m 179 1072 l 396 997 l 438 1072 l 668 993 l 469 817 l 299 817 l 381 967 l 214 817 l 42 817 l 179 1072 z "},"˛":{"ha":694,"x_min":219,"x_max":529,"o":"m 529 -228 q 299 -203 378 -243 q 219 -81 219 -164 q 246 14 219 -33 l 415 14 q 408 -33 408 -11 q 437 -91 408 -69 q 529 -114 465 -112 l 529 -228 z "},"ˇ":{"ha":694,"x_min":63,"x_max":632,"o":"m 63 1044 l 232 1044 l 349 960 l 465 1044 l 632 1044 l 454 815 l 240 815 l 63 1044 z "},"Ł":{"ha":915,"x_min":43,"x_max":886,"o":"m 149 340 l 43 310 l 43 550 l 149 581 l 149 972 l 417 972 l 417 661 l 663 733 l 663 492 l 417 419 l 417 236 l 886 236 l 886 0 l 149 0 l 149 340 z "},"ł":{"ha":557,"x_min":33,"x_max":524,"o":"m 147 367 l 33 333 l 33 569 l 147 603 l 147 1014 l 410 1014 l 410 678 l 524 711 l 524 474 l 410 440 l 410 0 l 147 0 l 147 367 z "},"Š":{"ha":906,"x_min":13,"x_max":861,"o":"m 160 1267 l 329 1267 l 446 1182 l 563 1267 l 729 1267 l 551 1038 l 338 1038 l 160 1267 m 468 -17 q 220 24 338 -17 q 13 144 103 64 l 163 324 q 478 207 308 207 q 560 224 532 207 q 589 274 589 242 l 589 276 q 582 303 589 292 q 556 326 575 315 q 506 348 538 338 q 425 369 475 358 q 281 409 347 388 q 165 465 214 431 q 87 549 115 499 q 58 675 58 600 l 58 678 q 84 803 58 746 q 159 901 110 860 q 278 966 208 943 q 435 989 347 989 q 658 956 560 989 q 835 860 756 924 l 700 669 q 563 741 633 717 q 428 765 493 765 q 355 747 379 765 q 331 703 331 729 l 331 700 q 338 671 331 683 q 365 648 346 658 q 416 627 383 638 q 499 606 449 617 q 649 563 582 588 q 764 504 717 539 q 836 420 811 469 q 861 303 861 371 l 861 300 q 833 167 861 225 q 753 67 804 108 q 629 5 701 26 q 468 -17 557 -17 z "},"š":{"ha":714,"x_min":14,"x_max":676,"o":"m 75 1044 l 244 1044 l 361 960 l 478 1044 l 644 1044 l 467 815 l 253 815 l 75 1044 m 369 -17 q 183 10 274 -17 q 14 94 93 38 l 113 254 q 245 190 178 211 q 371 168 313 168 q 438 208 438 168 l 438 211 q 407 246 438 233 q 317 275 376 258 q 213 308 261 289 q 128 353 164 326 q 71 419 92 381 q 50 515 50 458 l 50 518 q 73 624 50 578 q 136 702 96 671 q 231 750 176 733 q 351 767 286 767 q 515 744 435 767 q 661 679 596 721 l 571 513 q 453 563 513 544 q 349 582 393 582 q 303 572 318 582 q 288 546 288 561 l 288 543 q 319 508 288 521 q 410 476 350 494 q 514 442 465 461 q 599 397 563 424 q 656 331 635 369 q 676 238 676 292 l 676 235 q 654 126 676 172 q 592 47 632 79 q 494 -1 551 15 q 369 -17 438 -17 z "},"Ý":{"ha":1004,"x_min":-3,"x_max":1007,"o":"m 535 1292 l 781 1213 l 576 1035 l 390 1035 l 535 1292 m 367 364 l -3 972 l 304 972 l 504 618 l 706 972 l 1007 972 l 638 368 l 638 0 l 367 0 l 367 364 z "},"ý":{"ha":869,"x_min":15,"x_max":854,"o":"m 458 1072 l 704 993 l 500 815 l 314 815 l 458 1072 m 293 -226 q 163 -208 222 -226 q 51 -161 104 -190 l 133 24 q 196 -6 165 4 q 249 -17 226 -17 q 283 -10 268 -17 q 310 14 297 -4 l 15 751 l 292 751 l 442 299 l 583 751 l 854 751 l 579 18 q 528 -94 554 -47 q 468 -169 501 -140 q 392 -212 435 -199 q 293 -226 349 -226 z "},"Þ":{"ha":947,"x_min":86,"x_max":907,"o":"m 483 361 q 597 395 556 361 q 638 488 638 429 l 638 490 q 597 585 638 553 q 482 617 556 617 l 356 617 l 356 361 l 483 361 m 86 972 l 356 972 l 356 833 l 503 833 q 669 811 594 833 q 797 746 744 789 q 878 640 850 703 q 907 496 907 576 l 907 493 q 876 342 907 407 q 789 233 844 276 q 656 167 733 189 q 489 146 579 146 l 356 146 l 356 0 l 86 0 l 86 972 z "},"þ":{"ha":939,"x_min":71,"x_max":896,"o":"m 482 204 q 592 251 547 204 q 636 375 636 299 l 636 378 q 592 500 636 453 q 482 547 547 547 q 422 535 450 547 q 374 499 394 522 q 341 446 353 476 q 329 378 329 415 l 329 375 q 341 306 329 338 q 374 252 353 275 q 422 217 394 229 q 482 204 450 204 m 71 1014 l 335 1014 l 335 651 q 376 696 354 675 q 426 733 399 717 q 487 758 453 749 q 563 768 521 768 q 690 741 629 768 q 796 664 750 714 q 869 542 842 614 q 896 379 896 469 l 896 376 q 869 212 896 285 q 797 88 842 139 q 691 10 751 38 q 564 -17 631 -17 q 487 -8 521 -17 q 425 16 453 1 q 375 51 397 31 q 335 92 353 71 l 335 -222 l 71 -222 l 71 1014 z "},"Ž":{"ha":969,"x_min":56,"x_max":915,"o":"m 207 1267 l 376 1267 l 493 1182 l 610 1267 l 776 1267 l 599 1038 l 385 1038 l 207 1267 m 56 196 l 543 744 l 72 744 l 72 972 l 915 972 l 915 776 l 428 228 l 915 228 l 915 0 l 56 0 l 56 196 z "},"ž":{"ha":782,"x_min":44,"x_max":742,"o":"m 110 1044 l 279 1044 l 396 960 l 513 1044 l 679 1044 l 501 815 l 288 815 l 110 1044 m 44 174 l 392 542 l 57 542 l 57 751 l 742 751 l 742 578 l 393 210 l 742 210 l 742 0 l 44 0 l 44 174 z "},"ð":{"ha":911,"x_min":44,"x_max":854,"o":"m 451 203 q 561 244 522 203 q 600 344 600 286 l 600 347 q 589 402 600 376 q 558 447 578 428 q 510 478 539 467 q 449 489 482 489 q 338 448 378 489 q 299 349 299 407 l 299 346 q 310 291 299 317 q 341 245 321 265 q 390 214 361 225 q 451 203 418 203 m 446 -18 q 283 10 357 -18 q 156 88 210 39 q 74 203 103 136 q 44 346 44 269 l 44 349 q 68 472 44 414 q 135 572 92 529 q 239 638 178 614 q 375 663 300 663 q 525 625 464 663 l 414 774 l 254 713 l 164 836 l 326 892 l 238 1014 l 518 1014 l 547 972 l 685 1024 l 774 900 l 631 851 l 719 726 q 781 629 756 674 q 823 542 807 585 q 847 456 839 499 q 854 363 854 413 l 854 360 q 826 212 854 281 q 744 92 797 143 q 615 12 690 42 q 446 -18 539 -18 z "},"Ð":{"ha":1132,"x_min":43,"x_max":1078,"o":"m 533 232 q 730 298 658 232 q 801 485 801 364 l 801 488 q 730 674 801 607 q 533 740 658 740 l 415 740 l 415 596 l 581 596 l 581 383 l 415 383 l 415 232 l 533 232 m 154 383 l 43 383 l 43 596 l 154 596 l 154 972 l 529 972 q 762 937 660 972 q 934 838 864 901 q 1041 685 1004 774 q 1078 492 1078 597 l 1078 489 q 1040 294 1078 383 q 932 139 1003 204 q 758 37 861 74 q 524 0 654 0 l 154 0 l 154 383 z "}}}
